<?xml version="1.0" encoding="UTF-8" standalone="no"?>
<!-- Created with Inkscape (http://www.inkscape.org/) -->

<svg
   version="1.1"
   id="svg2"
   width="418.952"
   height="56.457066"
   viewBox="0 0 418.952 56.457066"
   sodipodi:docname="data-types.pdf"
   xmlns:inkscape="http://www.inkscape.org/namespaces/inkscape"
   xmlns:sodipodi="http://sodipodi.sourceforge.net/DTD/sodipodi-0.dtd"
   xmlns="http://www.w3.org/2000/svg"
   xmlns:svg="http://www.w3.org/2000/svg">
  <defs
     id="defs6">
    <clipPath
       clipPathUnits="userSpaceOnUse"
       id="clipPath20">
      <path
         d="M 0,42.343 H 314.214 V 0 H 0 Z"
         id="path18" />
    </clipPath>
    <clipPath
       clipPathUnits="userSpaceOnUse"
       id="clipPath40">
      <path
         d="M 0,42.343 H 314.214 V 0 H 0 Z"
         id="path38" />
    </clipPath>
    <clipPath
       clipPathUnits="userSpaceOnUse"
       id="clipPath56">
      <path
         d="M 0,42.343 H 314.214 V 0 H 0 Z"
         id="path54" />
    </clipPath>
    <clipPath
       clipPathUnits="userSpaceOnUse"
       id="clipPath72">
      <path
         d="M 0,42.343 H 314.214 V 0 H 0 Z"
         id="path70" />
    </clipPath>
    <clipPath
       clipPathUnits="userSpaceOnUse"
       id="clipPath88">
      <path
         d="M 0,42.343 H 314.214 V 0 H 0 Z"
         id="path86" />
    </clipPath>
  </defs>
  <sodipodi:namedview
     id="namedview4"
     pagecolor="#ffffff"
     bordercolor="#666666"
     borderopacity="1.0"
     inkscape:showpageshadow="2"
     inkscape:pageopacity="0.0"
     inkscape:pagecheckerboard="0"
     inkscape:deskcolor="#d1d1d1" />
  <g
     id="g8"
     inkscape:groupmode="layer"
     inkscape:label="data-types"
     transform="matrix(1.3333333,0,0,-1.3333333,0,56.457067)">
    <text
       xml:space="preserve"
       transform="matrix(1,0,0,-1,21.0791,26.7822)"
       style="font-variant:normal;font-weight:bold;font-stretch:normal;font-size:10px;font-family:'Myriad Pro Light';-inkscape-font-specification:MyriadPro-Semibold;writing-mode:lr-tb;fill:#393536;fill-opacity:1;fill-rule:nonzero;stroke:none"
       id="text12"><tspan
         x="0 6.8299999 11.85 15.36 20.440001 22.110001 26.9 31.9 37.75 42.91"
         y="0"
         sodipodi:role="line"
         id="tspan10">Data Types</tspan></text>
    <g
       id="g14">
      <g
         id="g16"
         clip-path="url(#clipPath20)">
        <g
           id="g22"
           transform="translate(11.9683,27.6636)">
          <path
             d="M 0,0 H -1.847 L 0.098,1.978 H -4.117 V 3.345 H 0.098 L -1.847,5.329 H 0 L 2.537,2.672 V 2.648 Z M 4.57,2.672 C 4.57,3.167 4.506,3.647 4.376,4.109 4.247,4.571 4.062,5.006 3.825,5.41 3.586,5.813 3.301,6.181 2.971,6.513 2.638,6.84 2.271,7.123 1.869,7.36 1.466,7.598 1.033,7.782 0.572,7.91 0.11,8.04 -0.37,8.105 -0.867,8.105 -1.363,8.105 -1.844,8.04 -2.306,7.91 -2.766,7.782 -3.2,7.598 -3.604,7.36 -4.01,7.123 -4.38,6.84 -4.711,6.506 -5.043,6.175 -5.328,5.81 -5.566,5.404 -5.803,5.004 -5.989,4.571 -6.121,4.109 -6.253,3.647 -6.32,3.167 -6.32,2.672 c 0,-0.495 0.067,-0.974 0.199,-1.437 0.132,-0.461 0.318,-0.895 0.555,-1.298 0.238,-0.407 0.525,-0.775 0.859,-1.106 0.335,-0.333 0.705,-0.616 1.11,-0.855 0.405,-0.236 0.838,-0.422 1.301,-0.555 0.462,-0.13 0.938,-0.197 1.429,-0.197 0.745,0 1.448,0.142 2.107,0.432 0.659,0.289 1.235,0.68 1.731,1.175 0.493,0.493 0.884,1.073 1.168,1.732 C 4.428,1.225 4.57,1.928 4.57,2.672 M 5.122,2.683 C 5.122,2.135 5.047,1.607 4.903,1.098 4.756,0.588 4.553,0.11 4.291,-0.335 4.029,-0.78 3.714,-1.186 3.352,-1.554 2.986,-1.92 2.58,-2.233 2.135,-2.497 1.689,-2.758 1.213,-2.963 0.705,-3.107 0.198,-3.255 -0.329,-3.328 -0.874,-3.328 c -0.546,0 -1.071,0.073 -1.581,0.221 -0.507,0.144 -0.983,0.349 -1.43,0.614 -0.446,0.264 -0.853,0.582 -1.219,0.946 -0.367,0.368 -0.682,0.776 -0.943,1.22 -0.263,0.445 -0.467,0.921 -0.613,1.43 -0.146,0.504 -0.218,1.032 -0.218,1.58 0,0.549 0.072,1.078 0.218,1.584 0.146,0.507 0.35,0.984 0.613,1.429 0.261,0.445 0.576,0.852 0.943,1.215 0.366,0.365 0.773,0.676 1.219,0.941 0.447,0.259 0.923,0.461 1.43,0.606 0.51,0.143 1.035,0.214 1.581,0.214 0.545,0 1.072,-0.073 1.579,-0.218 C 1.213,8.309 1.689,8.105 2.135,7.843 2.58,7.58 2.986,7.266 3.352,6.9 3.714,6.532 4.029,6.128 4.291,5.684 4.553,5.24 4.756,4.769 4.903,4.259 5.047,3.753 5.122,3.226 5.122,2.683"
             style="fill:#393536;fill-opacity:1;fill-rule:nonzero;stroke:none"
             id="path24" />
        </g>
        <g
           id="g26"
           transform="translate(25.6025,10.6567)">
          <path
             d="M 0,0 H -1.733 L 0.092,1.854 H -3.863 V 3.139 H 0.092 L -1.733,5 H 0 L 2.381,2.507 V 2.485 Z"
             style="fill:#393536;fill-opacity:1;fill-rule:nonzero;stroke:none"
             id="path28" />
        </g>
      </g>
    </g>
    <text
       xml:space="preserve"
       transform="matrix(1,0,0,-1,32.5439,9.8779)"
       style="font-variant:normal;font-weight:normal;font-stretch:normal;font-size:10px;font-family:'Myriad Pro';-inkscape-font-specification:MyriadPro-Regular;writing-mode:lr-tb;fill:#393536;fill-opacity:1;fill-rule:nonzero;stroke:none"
       id="text32"><tspan
         x="0 2.55 5.8000002 10.81 19.15"
         y="0"
         sodipodi:role="line"
         id="tspan30">Items</tspan></text>
    <g
       id="g34">
      <g
         id="g36"
         clip-path="url(#clipPath40)">
        <g
           id="g42"
           transform="translate(75.3916,10.6567)">
          <path
             d="M 0,0 H -1.733 L 0.092,1.854 H -3.863 V 3.139 H 0.092 L -1.733,5 H 0 L 2.38,2.507 V 2.485 Z"
             style="fill:#393536;fill-opacity:1;fill-rule:nonzero;stroke:none"
             id="path44" />
        </g>
      </g>
    </g>
    <text
       xml:space="preserve"
       transform="matrix(1,0,0,-1,80.7617,9.8779)"
       style="font-variant:normal;font-weight:normal;font-stretch:normal;font-size:10px;font-family:'Myriad Pro';-inkscape-font-specification:MyriadPro-Regular;writing-mode:lr-tb;fill:#393536;fill-opacity:1;fill-rule:nonzero;stroke:none"
       id="text48"><tspan
         x="0 6.02 9.3299999 12.64 15.95 18.290001 23.98 29.49 32.740002 37.75"
         y="0"
         sodipodi:role="line"
         id="tspan46">Attributes</tspan></text>
    <g
       id="g50">
      <g
         id="g52"
         clip-path="url(#clipPath56)">
        <g
           id="g58"
           transform="translate(146.0913,10.6567)">
          <path
             d="M 0,0 H -1.734 L 0.092,1.854 H -3.863 V 3.139 H 0.092 L -1.734,5 H 0 L 2.38,2.507 V 2.485 Z"
             style="fill:#393536;fill-opacity:1;fill-rule:nonzero;stroke:none"
             id="path60" />
        </g>
      </g>
    </g>
    <text
       xml:space="preserve"
       transform="matrix(1,0,0,-1,151.5488,9.8779)"
       style="font-variant:normal;font-weight:normal;font-stretch:normal;font-size:10px;font-family:'Myriad Pro';-inkscape-font-specification:MyriadPro-Regular;writing-mode:lr-tb;fill:#393536;fill-opacity:1;fill-rule:nonzero;stroke:none"
       id="text64"><tspan
         x="0 4.7199998 7.0599999 12.61 17.299999"
         y="0"
         sodipodi:role="line"
         id="tspan62">Links</tspan></text>
    <g
       id="g66">
      <g
         id="g68"
         clip-path="url(#clipPath72)">
        <g
           id="g74"
           transform="translate(196.9946,10.6567)">
          <path
             d="M 0,0 H -1.734 L 0.092,1.854 H -3.863 V 3.139 H 0.092 L -1.734,5 H 0 L 2.38,2.507 V 2.485 Z"
             style="fill:#393536;fill-opacity:1;fill-rule:nonzero;stroke:none"
             id="path76" />
        </g>
      </g>
    </g>
    <text
       xml:space="preserve"
       transform="matrix(1,0,0,-1,201.9404,9.8779)"
       style="font-variant:normal;font-weight:normal;font-stretch:normal;font-size:10px;font-family:'Myriad Pro';-inkscape-font-specification:MyriadPro-Regular;writing-mode:lr-tb;fill:#393536;fill-opacity:1;fill-rule:nonzero;stroke:none"
       id="text80"><tspan
         x="0 5.0700002 10.56 14.52 16.860001 20.17 22.51 28 33.549999"
         y="0"
         sodipodi:role="line"
         id="tspan78">Positions</tspan></text>
    <g
       id="g82">
      <g
         id="g84"
         clip-path="url(#clipPath88)">
        <g
           id="g90"
           transform="translate(263.8101,10.314)">
          <path
             d="M 0,0 H -1.733 L 0.092,1.854 H -3.863 V 3.139 H 0.092 L -1.733,5 H 0 L 2.38,2.507 V 2.485 Z"
             style="fill:#393536;fill-opacity:1;fill-rule:nonzero;stroke:none"
             id="path92" />
        </g>
      </g>
    </g>
    <text
       xml:space="preserve"
       transform="matrix(1,0,0,-1,269.9463,9.8779)"
       style="font-variant:normal;font-weight:normal;font-stretch:normal;font-size:10px;font-family:'Myriad Pro';-inkscape-font-specification:MyriadPro-Regular;writing-mode:lr-tb;fill:#393536;fill-opacity:1;fill-rule:nonzero;stroke:none"
       id="text96"><tspan
         x="0 6.46 9.7700005 12.11 17.75"
         y="0"
         sodipodi:role="line"
         id="tspan94">Grids</tspan></text>
  </g>
</svg>
