<?xml version="1.0" encoding="UTF-8" standalone="no"?>
<!-- Created with Inkscape (http://www.inkscape.org/) -->

<svg
   version="1.1"
   id="svg2"
   width="402.952"
   height="102.5208"
   viewBox="0 0 402.952 102.5208"
   sodipodi:docname="attribute-types.pdf"
   xmlns:inkscape="http://www.inkscape.org/namespaces/inkscape"
   xmlns:sodipodi="http://sodipodi.sourceforge.net/DTD/sodipodi-0.dtd"
   xmlns="http://www.w3.org/2000/svg"
   xmlns:svg="http://www.w3.org/2000/svg">
  <defs
     id="defs6">
    <clipPath
       clipPathUnits="userSpaceOnUse"
       id="clipPath20">
      <path
         d="M 0,76.891 H 302.214 V 0 H 0 Z"
         id="path18" />
    </clipPath>
    <clipPath
       clipPathUnits="userSpaceOnUse"
       id="clipPath36">
      <path
         d="M 0,76.891 H 302.214 V 0 H 0 Z"
         id="path34" />
    </clipPath>
    <clipPath
       clipPathUnits="userSpaceOnUse"
       id="clipPath66">
      <path
         d="M 0,76.891 H 302.214 V 0 H 0 Z"
         id="path64" />
    </clipPath>
    <clipPath
       clipPathUnits="userSpaceOnUse"
       id="clipPath82">
      <path
         d="M 0,76.891 H 302.214 V 0 H 0 Z"
         id="path80" />
    </clipPath>
    <clipPath
       clipPathUnits="userSpaceOnUse"
       id="clipPath110">
      <path
         d="M 0,76.891 H 302.214 V 0 H 0 Z"
         id="path108" />
    </clipPath>
  </defs>
  <sodipodi:namedview
     id="namedview4"
     pagecolor="#ffffff"
     bordercolor="#666666"
     borderopacity="1.0"
     inkscape:showpageshadow="2"
     inkscape:pageopacity="0.0"
     inkscape:pagecheckerboard="0"
     inkscape:deskcolor="#d1d1d1" />
  <g
     id="g8"
     inkscape:groupmode="layer"
     inkscape:label="attribute-types"
     transform="matrix(1.3333333,0,0,-1.3333333,0,102.5208)">
    <text
       xml:space="preserve"
       transform="matrix(1,0,0,-1,20.5122,60.8838)"
       style="font-variant:normal;font-weight:bold;font-stretch:normal;font-size:10px;font-family:'Myriad Pro Light';-inkscape-font-specification:MyriadPro-Semibold;writing-mode:lr-tb;fill:#393536;fill-opacity:1;fill-rule:nonzero;stroke:none"
       id="text12"><tspan
         x="0 6.21 9.7200003 13.23 16.790001 19.35 25.200001 30.889999 34.34 39.5 41.169998 45.959999 50.959999 56.810001 61.970001"
         y="0"
         sodipodi:role="line"
         id="tspan10">Attribute Types</tspan></text>
    <g
       id="g14">
      <g
         id="g16"
         clip-path="url(#clipPath20)">
        <g
           id="g22"
           transform="translate(11.5,61.7656)">
          <path
             d="M 0,0 H -1.847 L 0.099,1.978 H -4.116 V 3.344 H 0.099 L -1.847,5.329 H 0 L 2.538,2.672 V 2.648 Z M 4.57,2.672 C 4.57,3.167 4.506,3.647 4.377,4.109 4.246,4.571 4.062,5.006 3.824,5.41 3.587,5.813 3.301,6.183 2.971,6.513 2.638,6.84 2.272,7.123 1.869,7.36 1.466,7.599 1.034,7.782 0.573,7.91 0.11,8.04 -0.369,8.105 -0.867,8.105 -1.363,8.105 -1.843,8.04 -2.305,7.91 -2.766,7.782 -3.199,7.599 -3.604,7.36 -4.009,7.123 -4.379,6.84 -4.711,6.506 -5.043,6.175 -5.327,5.81 -5.565,5.404 -5.804,5.003 -5.988,4.571 -6.121,4.109 -6.253,3.647 -6.32,3.167 -6.32,2.672 c 0,-0.495 0.067,-0.974 0.199,-1.438 0.133,-0.46 0.317,-0.894 0.556,-1.297 0.238,-0.407 0.524,-0.776 0.859,-1.106 0.335,-0.334 0.704,-0.617 1.109,-0.855 0.405,-0.236 0.839,-0.422 1.301,-0.555 0.462,-0.13 0.939,-0.197 1.429,-0.197 0.745,0 1.449,0.142 2.106,0.432 0.66,0.289 1.237,0.68 1.732,1.175 0.493,0.494 0.884,1.072 1.169,1.732 0.288,0.661 0.43,1.364 0.43,2.109 M 5.122,2.683 C 5.122,2.135 5.047,1.607 4.904,1.098 4.757,0.588 4.553,0.109 4.291,-0.333 4.03,-0.778 3.715,-1.186 3.352,-1.555 2.985,-1.92 2.581,-2.234 2.136,-2.497 1.689,-2.758 1.213,-2.963 0.706,-3.108 c -0.507,-0.147 -1.034,-0.22 -1.58,-0.22 -0.545,0 -1.071,0.073 -1.58,0.22 -0.508,0.145 -0.984,0.35 -1.43,0.615 -0.447,0.264 -0.853,0.582 -1.22,0.947 -0.367,0.369 -0.682,0.774 -0.943,1.219 -0.262,0.445 -0.467,0.921 -0.613,1.43 -0.146,0.504 -0.218,1.032 -0.218,1.58 0,0.549 0.072,1.078 0.218,1.584 0.146,0.509 0.351,0.984 0.613,1.429 0.261,0.445 0.576,0.852 0.943,1.215 0.367,0.365 0.773,0.678 1.22,0.941 0.446,0.259 0.922,0.463 1.43,0.606 0.509,0.143 1.035,0.214 1.58,0.214 0.546,0 1.073,-0.073 1.58,-0.216 C 1.213,8.309 1.689,8.105 2.136,7.843 2.581,7.58 2.985,7.266 3.352,6.9 3.715,6.531 4.03,6.128 4.291,5.684 4.553,5.24 4.757,4.769 4.904,4.261 5.047,3.753 5.122,3.226 5.122,2.683"
             style="fill:#393536;fill-opacity:1;fill-rule:nonzero;stroke:none"
             id="path24" />
        </g>
      </g>
    </g>
    <text
       xml:space="preserve"
       transform="matrix(1,0,0,-1,33.2554,45.7773)"
       style="font-variant:normal;font-weight:normal;font-stretch:normal;font-size:10px;font-family:'Myriad Pro';-inkscape-font-specification:MyriadPro-Regular;writing-mode:lr-tb;fill:#393536;fill-opacity:1;fill-rule:nonzero;stroke:none"
       id="text28"><tspan
         x="0 5.73 10.51 13.76 18.77 24.360001 29.85 33.16 35.5 39.98 44.799999"
         y="0"
         sodipodi:role="line"
         id="tspan26">Categorical</tspan></text>
    <g
       id="g30">
      <g
         id="g32"
         clip-path="url(#clipPath36)">
        <path
           d="m 75.608,24.833 h 11.133 v 11.17 H 75.608 Z"
           style="fill:#393536;fill-opacity:1;fill-rule:nonzero;stroke:none"
           id="path38" />
        <g
           id="g40"
           transform="translate(107.4004,24.833)">
          <path
             d="M 0,0 -5.567,11.17 -11.133,0"
             style="fill:#393536;fill-opacity:1;fill-rule:evenodd;stroke:none"
             id="path42" />
        </g>
        <g
           id="g44"
           transform="translate(54.3589,30.418)">
          <path
             d="M 0,0 C 0,3.101 2.465,5.566 5.567,5.566 8.628,5.566 11.13,3.101 11.13,0 11.13,-3.062 8.628,-5.566 5.567,-5.566 2.465,-5.566 0,-3.062 0,0"
             style="fill:#393536;fill-opacity:1;fill-rule:evenodd;stroke:none"
             id="path46" />
        </g>
        <g
           id="g48"
           transform="translate(40.1802,31.7588)">
          <path
             d="M 0,0 V 4.244 H -2.682 V 0 h -4.244 v -2.683 h 4.244 V -6.926 H 0 v 4.243 h 4.245 l 0,2.683 z"
             style="fill:#393536;fill-opacity:1;fill-rule:nonzero;stroke:none"
             id="path50" />
        </g>
        <g
           id="g52"
           transform="translate(26.2969,46.6777)">
          <path
             d="M 0,0 H -1.734 L 0.092,1.854 H -3.863 V 3.139 H 0.092 L -1.734,5 H 0 L 2.381,2.507 V 2.485 Z"
             style="fill:#393536;fill-opacity:1;fill-rule:nonzero;stroke:none"
             id="path54" />
        </g>
      </g>
    </g>
    <text
       xml:space="preserve"
       transform="matrix(1,0,0,-1,136.1147,46.1006)"
       style="font-variant:normal;font-weight:normal;font-stretch:normal;font-size:10px;font-family:'Myriad Pro';-inkscape-font-specification:MyriadPro-Regular;writing-mode:lr-tb;fill:#393536;fill-opacity:1;fill-rule:nonzero;stroke:none"
       id="text58"><tspan
         x="0 6.8899999 10.06 15.7 20.709999 23.879999 28.889999"
         y="0"
         sodipodi:role="line"
         id="tspan56">Ordered</tspan></text>
    <g
       id="g60">
      <g
         id="g62"
         clip-path="url(#clipPath66)">
        <g
           id="g68"
           transform="translate(129.1572,47.0015)">
          <path
             d="M 0,0 H -1.734 L 0.092,1.854 H -3.863 V 3.139 H 0.092 L -1.734,5 H 0 L 2.381,2.507 V 2.485 Z"
             style="fill:#393536;fill-opacity:1;fill-rule:nonzero;stroke:none"
             id="path70" />
        </g>
      </g>
    </g>
    <text
       xml:space="preserve"
       transform="matrix(1,0,0,-1,144.5068,30.9385)"
       style="font-style:italic;font-variant:normal;font-weight:normal;font-stretch:normal;font-size:8px;font-family:'Myriad Pro';-inkscape-font-specification:MyriadPro-It;writing-mode:lr-tb;fill:#393536;fill-opacity:1;fill-rule:nonzero;stroke:none"
       id="text74"><tspan
         x="0 5.3920002 7.888 12.088 13.92 18.191999 22.368"
         y="0"
         sodipodi:role="line"
         id="tspan72">Ordinal</tspan></text>
    <g
       id="g76">
      <g
         id="g78"
         clip-path="url(#clipPath82)">
        <g
           id="g84"
           transform="translate(152.0957,13.1279)">
          <path
             d="M 0,0 -2.025,2.024 V 2.05 H -2.977 C -3.133,1.5 -3.635,1.095 -4.234,1.095 c -0.6,0 -1.102,0.405 -1.26,0.955 H -6.447 V 1.996 L -8.442,0 l 1.014,-1.016 0.981,0.984 v -4.285 h 4.422 v 4.313 l 1.011,-1.012 z"
             style="fill:#393536;fill-opacity:1;fill-rule:nonzero;stroke:none"
             id="path86" />
        </g>
        <g
           id="g88"
           transform="translate(169.7734,15.9619)">
          <path
             d="M 0,0 -3.355,3.354 V 3.395 H -4.934 C -5.193,2.482 -6.023,1.813 -7.018,1.813 c -0.994,0 -1.824,0.669 -2.084,1.582 H -10.68 V 3.306 L -13.984,0 l 1.679,-1.682 1.625,1.627 v -7.096 h 7.325 v 7.145 l 1.673,-1.676 z"
             style="fill:#393536;fill-opacity:1;fill-rule:nonzero;stroke:none"
             id="path90" />
        </g>
        <g
           id="g92"
           transform="translate(192.2539,19.0098)">
          <path
             d="m 0,0 -4.785,4.785 v 0.058 h -2.25 C -7.408,3.544 -8.59,2.587 -10.01,2.587 c -1.416,0 -2.601,0.957 -2.97,2.256 h -2.252 V 4.716 L -19.947,0 l 2.396,-2.397 2.319,2.321 v -10.123 h 10.447 v 10.191 l 2.389,-2.389 z"
             style="fill:#393536;fill-opacity:1;fill-rule:nonzero;stroke:none"
             id="path94" />
        </g>
        <g
           id="g96"
           transform="translate(139.6279,32.0698)">
          <path
             d="M 0,0 H -1.41 L 0.074,1.509 H -3.145 V 2.555 H 0.074 L -1.41,4.07 H 0 L 1.938,2.041 V 2.022 Z"
             style="fill:#393536;fill-opacity:1;fill-rule:nonzero;stroke:none"
             id="path98" />
        </g>
      </g>
    </g>
    <text
       xml:space="preserve"
       transform="matrix(1,0,0,-1,209.4912,30.9375)"
       style="font-style:italic;font-variant:normal;font-weight:normal;font-stretch:normal;font-size:8px;font-family:'Myriad Pro';-inkscape-font-specification:MyriadPro-It;writing-mode:lr-tb;fill:#393536;fill-opacity:1;fill-rule:nonzero;stroke:none"
       id="text102"><tspan
         x="0 5.3920002 9.5600004 13.736 18.007999 20.511999 22.344 24.848 29.024 31.528 33.360001 36.936001"
         y="0"
         sodipodi:role="line"
         id="tspan100">Quantitative</tspan></text>
    <g
       id="g104">
      <g
         id="g106"
         clip-path="url(#clipPath110)">
        <path
           d="m 218.104,15.834 h -6.934 v 1 h 6.934 z"
           style="fill:#393536;fill-opacity:1;fill-rule:nonzero;stroke:none"
           id="path112" />
        <path
           d="m 211.669,14.831 h -1 v 3 h 1 z"
           style="fill:#393536;fill-opacity:1;fill-rule:nonzero;stroke:none"
           id="path114" />
        <path
           d="m 218.603,14.831 h -1 v 3 h 1 z"
           style="fill:#393536;fill-opacity:1;fill-rule:nonzero;stroke:none"
           id="path116" />
        <g
           id="g118"
           transform="translate(204.3599,32.0698)">
          <path
             d="M 0,0 H -1.41 L 0.074,1.509 H -3.145 V 2.555 H 0.074 L -1.41,4.07 H 0 L 1.938,2.041 V 2.022 Z"
             style="fill:#393536;fill-opacity:1;fill-rule:nonzero;stroke:none"
             id="path120" />
        </g>
        <path
           d="m 248.219,15.834 h -21.832 v 1 h 21.832 z"
           style="fill:#393536;fill-opacity:1;fill-rule:nonzero;stroke:none"
           id="path122" />
        <path
           d="m 226.886,14.831 h -1 v 3 h 1 z"
           style="fill:#393536;fill-opacity:1;fill-rule:nonzero;stroke:none"
           id="path124" />
        <path
           d="m 248.718,14.831 h -1 v 3 h 1 z"
           style="fill:#393536;fill-opacity:1;fill-rule:nonzero;stroke:none"
           id="path126" />
        <path
           d="m 294.191,15.834 h -38.352 v 1 h 38.352 z"
           style="fill:#393536;fill-opacity:1;fill-rule:nonzero;stroke:none"
           id="path128" />
        <path
           d="m 256.338,14.831 h -1 v 3 h 1 z"
           style="fill:#393536;fill-opacity:1;fill-rule:nonzero;stroke:none"
           id="path130" />
        <path
           d="m 294.69,14.831 h -1 v 3 h 1 z"
           style="fill:#393536;fill-opacity:1;fill-rule:nonzero;stroke:none"
           id="path132" />
      </g>
    </g>
  </g>
</svg>
