<?xml version="1.0" encoding="UTF-8" standalone="no"?>
<!-- Created with Inkscape (http://www.inkscape.org/) -->

<svg
   version="1.1"
   id="svg2"
   width="281.79868"
   height="105.0384"
   viewBox="0 0 281.79868 105.0384"
   sodipodi:docname="dataset-availability.pdf"
   xmlns:inkscape="http://www.inkscape.org/namespaces/inkscape"
   xmlns:sodipodi="http://sodipodi.sourceforge.net/DTD/sodipodi-0.dtd"
   xmlns="http://www.w3.org/2000/svg"
   xmlns:svg="http://www.w3.org/2000/svg">
  <defs
     id="defs6">
    <clipPath
       clipPathUnits="userSpaceOnUse"
       id="clipPath20">
      <path
         d="M 0,78.779 H 211.349 V 0 H 0 Z"
         id="path18" />
    </clipPath>
    <clipPath
       clipPathUnits="userSpaceOnUse"
       id="clipPath40">
      <path
         d="M 0,78.779 H 211.349 V 0 H 0 Z"
         id="path38" />
    </clipPath>
    <clipPath
       clipPathUnits="userSpaceOnUse"
       id="clipPath56">
      <path
         d="M 0,78.779 H 211.349 V 0 H 0 Z"
         id="path54" />
    </clipPath>
  </defs>
  <sodipodi:namedview
     id="namedview4"
     pagecolor="#ffffff"
     bordercolor="#666666"
     borderopacity="1.0"
     inkscape:showpageshadow="2"
     inkscape:pageopacity="0.0"
     inkscape:pagecheckerboard="0"
     inkscape:deskcolor="#d1d1d1" />
  <g
     id="g8"
     inkscape:groupmode="layer"
     inkscape:label="dataset-availability"
     transform="matrix(1.3333333,0,0,-1.3333333,0,105.0384)">
    <text
       xml:space="preserve"
       transform="matrix(1,0,0,-1,21.7275,62.4766)"
       style="font-variant:normal;font-weight:bold;font-stretch:normal;font-size:10px;font-family:'Myriad Pro Light';-inkscape-font-specification:MyriadPro-Semibold;writing-mode:lr-tb;fill:#393536;fill-opacity:1;fill-rule:nonzero;stroke:none"
       id="text12"><tspan
         x="0 6.8299999 11.85 15.36 20.440001 24.610001 29.77 33.279999 35.349998 41.439999 46.459999 51.540001 54.099998 56.669998 61.75 67.599998 70.160004 72.730003 75.290001 78.870003"
         y="0"
         sodipodi:role="line"
         id="tspan10">Dataset Availability</tspan></text>
    <g
       id="g14">
      <g
         id="g16"
         clip-path="url(#clipPath20)">
        <g
           id="g22"
           transform="translate(11.9683,63.3203)">
          <path
             d="M 0,0 H -1.847 L 0.098,1.977 H -4.117 V 3.343 H 0.098 L -1.847,5.328 H 0 L 2.537,2.671 V 2.648 Z M 4.57,2.671 C 4.57,3.167 4.506,3.647 4.376,4.106 4.247,4.57 4.062,5.005 3.825,5.41 3.586,5.813 3.301,6.183 2.971,6.512 2.638,6.839 2.271,7.122 1.869,7.359 1.466,7.597 1.034,7.781 0.573,7.909 0.11,8.04 -0.37,8.104 -0.867,8.104 -1.363,8.104 -1.844,8.04 -2.306,7.909 -2.766,7.781 -3.2,7.597 -3.604,7.359 -4.01,7.122 -4.38,6.839 -4.711,6.506 -5.043,6.174 -5.328,5.809 -5.565,5.403 -5.803,5.003 -5.989,4.57 -6.121,4.106 -6.253,3.647 -6.32,3.167 -6.32,2.671 c 0,-0.495 0.067,-0.974 0.199,-1.438 0.132,-0.459 0.318,-0.893 0.556,-1.298 0.237,-0.405 0.524,-0.774 0.858,-1.104 0.335,-0.334 0.705,-0.617 1.11,-0.856 0.405,-0.236 0.838,-0.422 1.301,-0.554 0.462,-0.131 0.938,-0.197 1.429,-0.197 0.745,0 1.448,0.142 2.107,0.431 0.659,0.29 1.235,0.681 1.731,1.176 0.493,0.494 0.884,1.072 1.168,1.732 C 4.428,1.224 4.57,1.927 4.57,2.671 M 5.122,2.682 C 5.122,2.134 5.047,1.607 4.903,1.098 4.756,0.588 4.553,0.11 4.291,-0.335 4.029,-0.778 3.714,-1.186 3.352,-1.556 2.986,-1.921 2.58,-2.235 2.135,-2.497 1.689,-2.758 1.213,-2.964 0.705,-3.108 0.198,-3.255 -0.329,-3.329 -0.874,-3.329 c -0.546,0 -1.071,0.074 -1.581,0.221 -0.507,0.144 -0.983,0.35 -1.43,0.615 -0.446,0.264 -0.853,0.581 -1.219,0.946 -0.367,0.368 -0.682,0.775 -0.943,1.22 -0.263,0.444 -0.467,0.921 -0.613,1.429 -0.146,0.505 -0.218,1.032 -0.218,1.58 0,0.549 0.072,1.079 0.218,1.585 0.146,0.509 0.35,0.984 0.613,1.428 0.261,0.446 0.576,0.853 0.943,1.216 0.366,0.364 0.773,0.678 1.219,0.94 0.447,0.26 0.923,0.462 1.43,0.606 0.51,0.144 1.035,0.214 1.581,0.214 0.545,0 1.072,-0.073 1.579,-0.217 C 1.213,8.309 1.689,8.104 2.135,7.843 2.58,7.58 2.986,7.266 3.352,6.9 3.714,6.532 4.029,6.128 4.291,5.683 4.553,5.24 4.756,4.768 4.903,4.259 5.047,3.752 5.122,3.226 5.122,2.682"
             style="fill:#393536;fill-opacity:1;fill-rule:nonzero;stroke:none"
             id="path24" />
        </g>
        <g
           id="g26"
           transform="translate(24.9106,44.0088)">
          <path
             d="M 0,0 H -1.733 L 0.092,1.854 H -3.863 V 3.138 H 0.092 L -1.733,5 H 0 L 2.381,2.507 V 2.485 Z"
             style="fill:#393536;fill-opacity:1;fill-rule:nonzero;stroke:none"
             id="path28" />
        </g>
      </g>
    </g>
    <text
       xml:space="preserve"
       transform="matrix(1,0,0,-1,32.3115,43.0244)"
       style="font-variant:normal;font-weight:normal;font-stretch:normal;font-size:10px;font-family:'Myriad Pro';-inkscape-font-specification:MyriadPro-Regular;writing-mode:lr-tb;fill:#393536;fill-opacity:1;fill-rule:nonzero;stroke:none"
       id="text32"><tspan
         x="0 4.9000001 8.21 12.99 16.299999 18.639999"
         y="0"
         sodipodi:role="line"
         id="tspan30">Static</tspan></text>
    <g
       id="g34">
      <g
         id="g36"
         clip-path="url(#clipPath40)">
        <g
           id="g42"
           transform="translate(129.5576,44.0117)">
          <path
             d="M 0,0 H -1.733 L 0.093,1.854 H -3.863 V 3.138 H 0.093 L -1.733,5 H 0 L 2.38,2.507 V 2.485 Z"
             style="fill:#393536;fill-opacity:1;fill-rule:nonzero;stroke:none"
             id="path44" />
        </g>
      </g>
    </g>
    <text
       xml:space="preserve"
       transform="matrix(1,0,0,-1,135.6973,43.0244)"
       style="font-variant:normal;font-weight:normal;font-stretch:normal;font-size:10px;font-family:'Myriad Pro';-inkscape-font-specification:MyriadPro-Regular;writing-mode:lr-tb;fill:#393536;fill-opacity:1;fill-rule:nonzero;stroke:none"
       id="text48"><tspan
         x="0 6.8000002 11.51 17.059999 21.879999 30.219999 32.560001"
         y="0"
         sodipodi:role="line"
         id="tspan46">Dynamic</tspan></text>
    <g
       id="g50">
      <g
         id="g52"
         clip-path="url(#clipPath56)">
        <g
           id="g58"
           transform="translate(52.9844,35.6123)">
          <path
             d="m 0,0 h -11.307 c -1.25,0 -2.261,-1.012 -2.261,-2.26 v -17.338 c 0,-1.25 1.011,-2.261 2.261,-2.261 H 3.018 c 1.246,0 2.257,1.011 2.257,2.261 v 14.322 z"
             style="fill:#ffffff;fill-opacity:1;fill-rule:nonzero;stroke:none"
             id="path60" />
        </g>
        <g
           id="g62"
           transform="translate(41.6777,35.2803)">
          <path
             d="m 0,0 c -1.063,0 -1.931,-0.865 -1.931,-1.928 v -17.338 c 0,-1.064 0.868,-1.93 1.931,-1.93 h 14.324 c 1.061,0 1.924,0.866 1.924,1.93 V -5.082 L 11.17,0 Z M 14.324,-21.859 H 0 c -1.434,0 -2.591,1.164 -2.591,2.593 v 17.338 c 0,1.43 1.157,2.592 2.591,2.592 h 11.307 c 0.089,0 0.172,-0.036 0.233,-0.099 l 5.277,-5.274 c 0.061,-0.061 0.101,-0.146 0.101,-0.235 v -14.322 c 0,-1.429 -1.166,-2.593 -2.594,-2.593"
             style="fill:#393536;fill-opacity:1;fill-rule:nonzero;stroke:none"
             id="path64" />
        </g>
        <g
           id="g66"
           transform="translate(56.8486,29.583)">
          <path
             d="m 0,0 h -3.864 c -0.412,0 -0.754,0.336 -0.754,0.753 v 4.1"
             style="fill:#ffffff;fill-opacity:1;fill-rule:nonzero;stroke:none"
             id="path68" />
        </g>
        <g
           id="g70"
           transform="translate(56.8486,29.251)">
          <path
             d="M 0,0 H -3.864 C -4.462,0 -4.95,0.486 -4.95,1.085 v 4.1 c 0,0.184 0.148,0.333 0.332,0.333 0.184,0 0.332,-0.149 0.332,-0.333 v -4.1 c 0,-0.234 0.191,-0.423 0.422,-0.423 H 0 c 0.184,0 0.331,-0.149 0.331,-0.33 C 0.331,0.146 0.184,0 0,0"
             style="fill:#393536;fill-opacity:1;fill-rule:nonzero;stroke:none"
             id="path72" />
        </g>
        <g
           id="g74"
           transform="translate(48.3145,21.4717)">
          <path
             d="m 0,0 c 0,-0.574 -0.465,-1.04 -1.04,-1.04 -0.574,0 -1.04,0.466 -1.04,1.04 0,0.575 0.466,1.041 1.04,1.041 C -0.465,1.041 0,0.575 0,0"
             style="fill:#d34620;fill-opacity:1;fill-rule:nonzero;stroke:none"
             id="path76" />
        </g>
        <g
           id="g78"
           transform="translate(44.2734,22.5039)">
          <path
             d="m 0,0 c 0,-0.574 -0.467,-1.04 -1.04,-1.04 -0.575,0 -1.041,0.466 -1.041,1.04 0,0.574 0.466,1.039 1.041,1.039 C -0.467,1.039 0,0.574 0,0"
             style="fill:#d34620;fill-opacity:1;fill-rule:nonzero;stroke:none"
             id="path80" />
        </g>
        <g
           id="g82"
           transform="translate(52.3574,22.5039)">
          <path
             d="m 0,0 c 0,-0.574 -0.466,-1.04 -1.04,-1.04 -0.574,0 -1.04,0.466 -1.04,1.04 0,0.574 0.466,1.039 1.04,1.039 C -0.466,1.039 0,0.574 0,0"
             style="fill:#d34620;fill-opacity:1;fill-rule:nonzero;stroke:none"
             id="path84" />
        </g>
        <g
           id="g86"
           transform="translate(56.3994,25.6133)">
          <path
             d="m 0,0 c 0,-0.575 -0.466,-1.04 -1.04,-1.04 -0.574,0 -1.041,0.465 -1.041,1.04 0,0.574 0.467,1.039 1.041,1.039 C -0.466,1.039 0,0.574 0,0"
             style="fill:#d34620;fill-opacity:1;fill-rule:nonzero;stroke:none"
             id="path88" />
        </g>
        <g
           id="g90"
           transform="translate(156.377,23.7949)">
          <path
             d="m 0,0 c 0,-0.795 -0.644,-1.44 -1.441,-1.44 -0.795,0 -1.441,0.645 -1.441,1.44 0,0.796 0.646,1.442 1.441,1.442 C -0.644,1.442 0,0.796 0,0"
             style="fill:#d34620;fill-opacity:1;fill-rule:nonzero;stroke:none"
             id="path92" />
        </g>
        <g
           id="g94"
           transform="translate(150.7783,25.2246)">
          <path
             d="m 0,0 c 0,-0.795 -0.646,-1.44 -1.44,-1.44 -0.798,0 -1.442,0.645 -1.442,1.44 0,0.796 0.644,1.439 1.442,1.439 C -0.646,1.439 0,0.796 0,0"
             style="fill:#d34620;fill-opacity:1;fill-rule:nonzero;stroke:none"
             id="path96" />
        </g>
        <g
           id="g98"
           transform="translate(161.9775,25.2246)">
          <path
             d="m 0,0 c 0,-0.795 -0.646,-1.44 -1.441,-1.44 -0.795,0 -1.442,0.645 -1.442,1.44 0,0.796 0.647,1.439 1.442,1.439 C -0.646,1.439 0,0.796 0,0"
             style="fill:#d34620;fill-opacity:1;fill-rule:nonzero;stroke:none"
             id="path100" />
        </g>
        <g
           id="g102"
           transform="translate(167.5752,29.5313)">
          <path
             d="m 0,0 c 0,-0.795 -0.644,-1.439 -1.44,-1.439 -0.795,0 -1.441,0.644 -1.441,1.439 0,0.795 0.646,1.44 1.441,1.44 C -0.644,1.44 0,0.795 0,0"
             style="fill:#d34620;fill-opacity:1;fill-rule:nonzero;stroke:none"
             id="path104" />
        </g>
        <g
           id="g106"
           transform="translate(173.1758,21.0361)">
          <path
             d="m 0,0 c 0,-0.796 -0.646,-1.438 -1.44,-1.438 -0.797,0 -1.444,0.642 -1.444,1.438 0,0.795 0.647,1.44 1.444,1.44 C -0.646,1.44 0,0.795 0,0"
             style="fill:#d34620;fill-opacity:1;fill-rule:nonzero;stroke:none"
             id="path108" />
        </g>
        <g
           id="g110"
           transform="translate(178.7734,22.8945)">
          <path
             d="m 0,0 c 0,-0.797 -0.646,-1.441 -1.44,-1.441 -0.797,0 -1.442,0.644 -1.442,1.441 0,0.795 0.645,1.44 1.442,1.44 C -0.646,1.44 0,0.795 0,0"
             style="fill:#d34620;fill-opacity:1;fill-rule:nonzero;stroke:none"
             id="path112" />
        </g>
        <g
           id="g114"
           transform="translate(186.665,24.0654)">
          <path
             d="M 0,0 H 9.635"
             style="fill:none;stroke:#393536;stroke-width:0.6;stroke-linecap:round;stroke-linejoin:round;stroke-miterlimit:10;stroke-dasharray:none;stroke-opacity:1"
             id="path116" />
        </g>
        <g
           id="g118"
           transform="translate(196.0371,25.0996)">
          <path
             d="M 0,0 1.791,-1.033 0,-2.068 Z"
             style="fill:#393536;fill-opacity:1;fill-rule:nonzero;stroke:none"
             id="path120" />
        </g>
        <g
           id="g122"
           transform="translate(196.0371,25.0996)">
          <path
             d="M 0,0 1.791,-1.033 0,-2.068 Z"
             style="fill:none;stroke:#393536;stroke-width:1;stroke-linecap:butt;stroke-linejoin:miter;stroke-miterlimit:10;stroke-dasharray:none;stroke-opacity:1"
             id="path124" />
        </g>
      </g>
    </g>
  </g>
</svg>
