<?xml version="1.0" encoding="UTF-8" standalone="no"?>
<!-- Created with Inkscape (http://www.inkscape.org/) -->

<svg
   version="1.1"
   id="svg2"
   width="608"
   height="416.61868"
   viewBox="0 0 608 416.61868"
   sodipodi:docname="marks-channels.pdf"
   xmlns:inkscape="http://www.inkscape.org/namespaces/inkscape"
   xmlns:sodipodi="http://sodipodi.sourceforge.net/DTD/sodipodi-0.dtd"
   xmlns="http://www.w3.org/2000/svg"
   xmlns:svg="http://www.w3.org/2000/svg">
  <defs
     id="defs6">
    <clipPath
       clipPathUnits="userSpaceOnUse"
       id="clipPath16">
      <path
         d="M 0,312.464 H 456 V 0 H 0 Z"
         id="path14" />
    </clipPath>
    <clipPath
       clipPathUnits="userSpaceOnUse"
       id="clipPath24">
      <path
         d="m 148.666,77.2471 h 10.542 v -10.542 h -10.542 z"
         id="path22" />
    </clipPath>
    <clipPath
       clipPathUnits="userSpaceOnUse"
       id="clipPath38">
      <path
         d="m 164.044,77.248 h 10.542 V 66.7051 h -10.542 z"
         id="path36" />
    </clipPath>
    <clipPath
       clipPathUnits="userSpaceOnUse"
       id="clipPath52">
      <path
         d="m 179.421,77.2471 h 10.543 v -10.542 h -10.543 z"
         id="path50" />
    </clipPath>
    <clipPath
       clipPathUnits="userSpaceOnUse"
       id="clipPath116">
      <path
         d="M 0,312.464 H 456 V 0 H 0 Z"
         id="path114" />
    </clipPath>
    <clipPath
       clipPathUnits="userSpaceOnUse"
       id="clipPath154">
      <path
         d="M 0,312.464 H 456 V 0 H 0 Z"
         id="path152" />
    </clipPath>
    <clipPath
       clipPathUnits="userSpaceOnUse"
       id="clipPath312">
      <path
         d="M 0,312.464 H 456 V 0 H 0 Z"
         id="path310" />
    </clipPath>
  </defs>
  <sodipodi:namedview
     id="namedview4"
     pagecolor="#ffffff"
     bordercolor="#666666"
     borderopacity="1.0"
     inkscape:showpageshadow="2"
     inkscape:pageopacity="0.0"
     inkscape:pagecheckerboard="0"
     inkscape:deskcolor="#d1d1d1" />
  <g
     id="g8"
     inkscape:groupmode="layer"
     inkscape:label="marks-channels"
     transform="matrix(1.3333333,0,0,-1.3333333,0,416.61867)">
    <g
       id="g10">
      <g
         id="g12"
         clip-path="url(#clipPath16)">
        <g
           id="g18">
          <g
             id="g20" />
          <g
             id="g30">
            <g
               clip-path="url(#clipPath24)"
               opacity="0.0500031"
               id="g28">
              <path
                 d="m 159.208,66.705 h -10.542 v 10.542 h 10.542 z"
                 style="fill:#f14624;fill-opacity:1;fill-rule:nonzero;stroke:none"
                 id="path26" />
            </g>
          </g>
        </g>
        <g
           id="g32">
          <g
             id="g34" />
          <g
             id="g44">
            <g
               clip-path="url(#clipPath38)"
               opacity="0.330002"
               id="g42">
              <path
                 d="m 174.586,66.705 h -10.542 v 10.543 h 10.542 z"
                 style="fill:#f14624;fill-opacity:1;fill-rule:nonzero;stroke:none"
                 id="path40" />
            </g>
          </g>
        </g>
        <g
           id="g46">
          <g
             id="g48" />
          <g
             id="g58">
            <g
               clip-path="url(#clipPath52)"
               opacity="0.660004"
               id="g56">
              <path
                 d="m 189.964,66.705 h -10.543 v 10.542 h 10.543 z"
                 style="fill:#f14624;fill-opacity:1;fill-rule:nonzero;stroke:none"
                 id="path54" />
            </g>
          </g>
        </g>
      </g>
    </g>
    <path
       d="M 205.342,66.705 H 194.8 v 10.543 h 10.542 z"
       style="fill:#f14624;fill-opacity:1;fill-rule:nonzero;stroke:none"
       id="path60" />
    <text
       xml:space="preserve"
       transform="matrix(1,0,0,-1,23.8135,277.9224)"
       style="font-variant:normal;font-weight:bold;font-stretch:normal;font-size:10px;font-family:'Myriad Pro Light';-inkscape-font-specification:MyriadPro-Semibold;writing-mode:lr-tb;fill:#393536;fill-opacity:1;fill-rule:nonzero;stroke:none"
       id="text78"><tspan
         x="0 8.3100004 13.39 19.08 24.799999 27.360001 30.870001 36.560001 42.369999 47.529999"
         y="0"
         sodipodi:role="line"
         id="tspan62">Magnitude </tspan><tspan
         x="49.599998 55.450001 61.169998 66.25 71.970001 77.690002 82.849998 85.419998 89.589996 91.949997"
         y="0"
         sodipodi:role="line"
         id="tspan64">Channels: </tspan><tspan
         x="94.019997 101.09 104.56 110.37 115.53 119 124.16 129.97"
         y="0"
         sodipodi:role="line"
         id="tspan66">Ordered </tspan><tspan
         x="132.03999 138.25 141.75999 145.27 148.83 151.39 157.24001 162.92999 166.38 171.53999"
         y="0"
         sodipodi:role="line"
         id="tspan68">Attributes</tspan><tspan
         x="248.34 250.98 256.79001 261.95001 267.62 271.13 273.69 277.26999 282.26999"
         y="0"
         sodipodi:role="line"
         id="tspan70">Identity </tspan><tspan
         x="284.34 290.19 295.91 300.98999 306.70999 312.42999 317.59 320.16 324.32999 326.69"
         y="0"
         sodipodi:role="line"
         id="tspan72">Channels: </tspan><tspan
         x="328.76001 334.54999 339.57001 343.01999 348.17999 353.91 359.54999 363.10999 365.67001 370.16 375.23999 377.81"
         y="0"
         sodipodi:role="line"
         id="tspan74">Categorical </tspan><tspan
         x="379.88 386.09 389.60001 393.10999 396.67001 399.23001 405.07999 410.76999 414.22 419.38"
         y="0"
         sodipodi:role="line"
         id="tspan76">Attributes</tspan></text>
    <text
       xml:space="preserve"
       transform="matrix(1,0,0,-1,272.1535,258.5924)"
       style="font-variant:normal;font-weight:normal;font-stretch:normal;font-size:10px;font-family:'Myriad Pro';-inkscape-font-specification:MyriadPro-Regular;writing-mode:lr-tb;fill:#393536;fill-opacity:1;fill-rule:nonzero;stroke:none"
       id="text88"><tspan
         x="0 4.9299998 10.62 15.4 18.709999 21.049999 25.870001 28.23 30.35 33.52 38.529999 44.060001 46.400002 51.889999"
         y="0"
         sodipodi:role="line"
         id="tspan80">Spatial region</tspan><tspan
         x="0 5.6900001 11.18 13.54 19.030001 22.299999 24.42 29.969999 35.48"
         y="27"
         sodipodi:role="line"
         id="tspan82">Color hue</tspan><tspan
         x="0 8.1000004 13.59 16.9 19.24 24.73"
         y="54"
         sodipodi:role="line"
         id="tspan84">Motion</tspan><tspan
         x="0 4.9299998 10.48 15.3 20.99"
         y="81"
         sodipodi:role="line"
         id="tspan86">Shape</tspan></text>
    <path
       d="m 378.71,262.75 h -4.992 v 4.994 h 4.992 z"
       style="fill:#393536;fill-opacity:1;fill-rule:nonzero;stroke:none"
       id="path90" />
    <path
       d="m 390.934,253.786 h -8.964 v 8.964 h 8.964 z"
       style="fill:#393536;fill-opacity:1;fill-rule:nonzero;stroke:none"
       id="path92" />
    <path
       d="m 408.255,257.135 h -12.529 v 12.529 h 12.529 z"
       style="fill:#393536;fill-opacity:1;fill-rule:nonzero;stroke:none"
       id="path94" />
    <path
       d="m 375.87,230.517 h -10.761 v 10.759 h 10.761 z"
       style="fill:#ecc10c;fill-opacity:1;fill-rule:nonzero;stroke:none"
       id="path96" />
    <path
       d="m 392.134,230.517 h -10.761 v 10.76 h 10.761 z"
       style="fill:#d34620;fill-opacity:1;fill-rule:nonzero;stroke:none"
       id="path98" />
    <path
       d="m 408.398,230.517 h -10.761 v 10.759 h 10.761 z"
       style="fill:#45bf94;fill-opacity:1;fill-rule:nonzero;stroke:none"
       id="path100" />
    <path
       d="M 424.661,230.517 H 413.9 v 10.76 h 10.761 z"
       style="fill:#3f7ec0;fill-opacity:1;fill-rule:nonzero;stroke:none"
       id="path102" />
    <path
       d="m 398.97,176.313 h 8.621 v 8.651 h -8.621 z"
       style="fill:#393536;fill-opacity:1;fill-rule:nonzero;stroke:none"
       id="path104" />
    <g
       id="g106"
       transform="translate(423.5918,176.3125)">
      <path
         d="M 0,0 -4.312,8.651 -8.622,0"
         style="fill:#393536;fill-opacity:1;fill-rule:evenodd;stroke:none"
         id="path108" />
    </g>
    <g
       id="g110">
      <g
         id="g112"
         clip-path="url(#clipPath116)">
        <g
           id="g118"
           transform="translate(382.5098,180.6377)">
          <path
             d="m 0,0 c 0,2.402 1.909,4.311 4.312,4.311 2.371,0 4.31,-1.909 4.31,-4.311 0,-2.37 -1.939,-4.31 -4.31,-4.31 C 1.909,-4.31 0,-2.37 0,0"
             style="fill:#393536;fill-opacity:1;fill-rule:evenodd;stroke:none"
             id="path120" />
        </g>
        <g
           id="g122"
           transform="translate(371.5283,181.6768)">
          <path
             d="M 0,0 V 3.287 H -2.077 V 0 h -3.288 v -2.077 h 3.288 V -5.364 H 0 v 3.287 h 3.288 l 0,2.077 z"
             style="fill:#393536;fill-opacity:1;fill-rule:nonzero;stroke:none"
             id="path124" />
        </g>
      </g>
    </g>
    <text
       xml:space="preserve"
       transform="matrix(1,0,0,-1,23.8145,258.5942)"
       style="font-variant:normal;font-weight:normal;font-stretch:normal;font-size:10px;font-family:'Myriad Pro';-inkscape-font-specification:MyriadPro-Regular;writing-mode:lr-tb;fill:#393536;fill-opacity:1;fill-rule:nonzero;stroke:none"
       id="text146"><tspan
         x="0 5.0700002 10.56 14.52 16.860001 20.17 22.51 28 33.549999 35.669998 41.16 46.709999 48.830002 53.25 58.740002 67.080002 75.419998 80.910004 86.459999 88.580002 92.540001 97.019997 101.84 104.2"
         y="0"
         sodipodi:role="line"
         id="tspan126">Position on common scale</tspan><tspan
         x="0 5.0700002 10.56 14.52 16.860001 20.17 22.51 28 33.549999 35.669998 41.16 46.709999 48.830002 54.34 59.889999 64.709999 67.07 69.410004 74.940002 80.489998 85.5 91.139999 93.260002 97.220001 101.7 106.52 108.88"
         y="27"
         sodipodi:role="line"
         id="tspan128">Position on unaligned scale</tspan><tspan
         x="0 4.5799999 9.5900002 15.14 20.73 24.040001 29.59 31.709999 34.549999 39.68 46.34 48.459999 52.419998 54.759998 58.970001 63.98"
         y="54"
         sodipodi:role="line"
         id="tspan130">Length (1D size)</tspan><tspan
         x="0 4.8499999 7.1900001 9.5500002 12.86 16.290001 21.110001 26.66 32.25 34.610001"
         y="81"
         sodipodi:role="line"
         id="tspan132">Tilt/angle</tspan><tspan
         x="0 6.0900002 9.2600002 14.27 19.09 21.209999 24.049999 29.18 35.84 37.959999 41.919998 44.259998 48.470001 53.48"
         y="108"
         sodipodi:role="line"
         id="tspan134">Area (2D size)</tspan><tspan
         x="0 6.6999998 11.71 17.4 20.709999 26.26 28.379999 31.219999 36.349998 43.009998 45.130001 50.82 56.310001 60.27 62.610001 65.919998 68.260002 73.75 79.300003"
         y="135"
         sodipodi:role="line"
         id="tspan136">Depth (3D position)</tspan><tspan
         x="0 5.6900001 11.18 13.54 19.030001 22.299999 24.42 26.780001 32.290001 40.630001 42.970001 48.52 53.34 58.889999 63.310001"
         y="162"
         sodipodi:role="line"
         id="tspan138">Color luminance</tspan><tspan
         x="0 5.6900001 11.18 13.54 19.030001 22.299999 24.42 28.379999 33.16 36.470001 41.98 45.200001 49.98 53.290001 55.630001 61.119999"
         y="189"
         sodipodi:role="line"
         id="tspan140">Color saturation</tspan><tspan
         x="0 5.6799998 11.19 14.71 19.48 24.26 27.57 33.080002 36.25"
         y="216"
         sodipodi:role="line"
         id="tspan142">Curvature</tspan><tspan
         x="0 5.25 10.74 13.1 18.610001 26.950001 31.959999 34.080002 36.919998 42.049999 48.709999 50.830002 54.790001 57.130001 61.34 66.349998"
         y="243"
         sodipodi:role="line"
         id="tspan144">Volume (3D size)</tspan></text>
    <g
       id="g148">
      <g
         id="g150"
         clip-path="url(#clipPath154)">
        <g
           id="g156"
           transform="translate(154.8086,209.1943)">
          <path
             d="M 0,0 H 4.405"
             style="fill:none;stroke:#393536;stroke-width:1;stroke-linecap:butt;stroke-linejoin:miter;stroke-miterlimit:10;stroke-dasharray:none;stroke-opacity:1"
             id="path158" />
        </g>
        <g
           id="g160"
           transform="translate(164.0869,209.1943)">
          <path
             d="M 0,0 H 13.87"
             style="fill:none;stroke:#393536;stroke-width:1;stroke-linecap:butt;stroke-linejoin:miter;stroke-miterlimit:10;stroke-dasharray:none;stroke-opacity:1"
             id="path162" />
        </g>
        <g
           id="g164"
           transform="translate(182.4551,209.1943)">
          <path
             d="M 0,0 H 24.365"
             style="fill:none;stroke:#393536;stroke-width:1;stroke-linecap:butt;stroke-linejoin:miter;stroke-miterlimit:10;stroke-dasharray:none;stroke-opacity:1"
             id="path166" />
        </g>
        <path
           d="m 171.491,153.533 h -4.351 v 4.351 h 4.351 z"
           style="fill:#393536;fill-opacity:1;fill-rule:nonzero;stroke:none"
           id="path168" />
        <path
           d="m 188.249,151.803 h -7.813 v 7.812 h 7.813 z"
           style="fill:#393536;fill-opacity:1;fill-rule:nonzero;stroke:none"
           id="path170" />
        <path
           d="m 205.994,149.785 h -11.846 v 11.846 h 11.846 z"
           style="fill:#393536;fill-opacity:1;fill-rule:nonzero;stroke:none"
           id="path172" />
        <path
           d="m 159.209,93.902 h -10.542 v 10.543 h 10.542 z"
           style="fill:#f4f4f4;fill-opacity:1;fill-rule:nonzero;stroke:#231f20;stroke-width:0.4;stroke-linecap:butt;stroke-linejoin:miter;stroke-miterlimit:10;stroke-dasharray:none;stroke-opacity:1"
           id="path174" />
        <path
           d="m 174.587,93.903 h -10.543 v 10.542 h 10.543 z"
           style="fill:#bdbcbc;fill-opacity:1;fill-rule:nonzero;stroke:none"
           id="path176" />
        <path
           d="m 189.965,93.902 h -10.543 v 10.543 h 10.543 z"
           style="fill:#7b7979;fill-opacity:1;fill-rule:nonzero;stroke:none"
           id="path178" />
        <path
           d="m 205.343,93.903 h -10.542 v 10.542 h 10.542 z"
           style="fill:#393536;fill-opacity:1;fill-rule:nonzero;stroke:none"
           id="path180" />
        <path
           d="m 159.208,66.701 h -10.542 v 10.542 h 10.542 z"
           style="fill:none;stroke:#231f20;stroke-width:0.4;stroke-linecap:butt;stroke-linejoin:miter;stroke-miterlimit:10;stroke-dasharray:none;stroke-opacity:1"
           id="path182" />
        <g
           id="g184"
           transform="translate(198.8457,17.5615)">
          <path
             d="m 0,0 -0.021,-6.942 -6.036,3.485 0.021,6.941 z"
             style="fill:#393536;fill-opacity:1;fill-rule:nonzero;stroke:none"
             id="path186" />
        </g>
        <g
           id="g188"
           transform="translate(198.8457,17.5615)">
          <path
             d="M 0,0 5.913,3.436 5.893,-3.506 -0.021,-6.942 Z"
             style="fill:#a7a5a6;fill-opacity:1;fill-rule:nonzero;stroke:none"
             id="path190" />
        </g>
        <g
           id="g192"
           transform="translate(192.8096,21.0459)">
          <path
             d="M 0,0 5.913,3.437 11.949,-0.049 6.036,-3.484 Z"
             style="fill:#e9e9e9;fill-opacity:1;fill-rule:nonzero;stroke:none"
             id="path194" />
        </g>
        <g
           id="g196"
           transform="translate(153.2637,266.208)">
          <path
             d="M 0,0 H 53.557"
             style="fill:none;stroke:#393536;stroke-width:1;stroke-linecap:butt;stroke-linejoin:miter;stroke-miterlimit:10;stroke-dasharray:none;stroke-opacity:1"
             id="path198" />
        </g>
        <g
           id="g200"
           transform="translate(206.7617,268.4102)">
          <path
             d="M 0,0 V -4.405"
             style="fill:none;stroke:#393536;stroke-width:1;stroke-linecap:butt;stroke-linejoin:miter;stroke-miterlimit:10;stroke-dasharray:none;stroke-opacity:1"
             id="path202" />
        </g>
        <g
           id="g204"
           transform="translate(153.2637,268.4102)">
          <path
             d="M 0,0 V -4.405"
             style="fill:none;stroke:#393536;stroke-width:1;stroke-linecap:butt;stroke-linejoin:miter;stroke-miterlimit:10;stroke-dasharray:none;stroke-opacity:1"
             id="path206" />
        </g>
        <g
           id="g208"
           transform="translate(196.8408,266.208)">
          <path
             d="m 0,0 c 0,-1.217 -0.986,-2.203 -2.203,-2.203 -1.217,0 -2.202,0.986 -2.202,2.203 0,1.216 0.985,2.202 2.202,2.202 C -0.986,2.202 0,1.216 0,0"
             style="fill:#393536;fill-opacity:1;fill-rule:nonzero;stroke:none"
             id="path210" />
        </g>
        <g
           id="g212"
           transform="translate(152.6436,238.9414)">
          <path
             d="M 0,0 H 21.04"
             style="fill:none;stroke:#393536;stroke-width:1;stroke-linecap:butt;stroke-linejoin:miter;stroke-miterlimit:10;stroke-dasharray:none;stroke-opacity:1"
             id="path214" />
        </g>
        <g
           id="g216"
           transform="translate(173.6602,241.1445)">
          <path
             d="M 0,0 V -4.405"
             style="fill:none;stroke:#393536;stroke-width:1;stroke-linecap:butt;stroke-linejoin:miter;stroke-miterlimit:10;stroke-dasharray:none;stroke-opacity:1"
             id="path218" />
        </g>
        <g
           id="g220"
           transform="translate(152.6436,241.1445)">
          <path
             d="M 0,0 V -4.405"
             style="fill:none;stroke:#393536;stroke-width:1;stroke-linecap:butt;stroke-linejoin:miter;stroke-miterlimit:10;stroke-dasharray:none;stroke-opacity:1"
             id="path222" />
        </g>
        <g
           id="g224"
           transform="translate(167.6514,238.9414)">
          <path
             d="m 0,0 c 0,-1.216 -0.986,-2.202 -2.203,-2.202 -1.217,0 -2.202,0.986 -2.202,2.202 0,1.217 0.985,2.203 2.202,2.203 C -0.986,2.203 0,1.217 0,0"
             style="fill:#393536;fill-opacity:1;fill-rule:nonzero;stroke:none"
             id="path226" />
        </g>
        <g
           id="g228"
           transform="translate(165.8105,230.6025)">
          <path
             d="M 0,0 H 40.975"
             style="fill:none;stroke:#393536;stroke-width:1;stroke-linecap:butt;stroke-linejoin:miter;stroke-miterlimit:10;stroke-dasharray:none;stroke-opacity:1"
             id="path230" />
        </g>
        <g
           id="g232"
           transform="translate(206.8203,232.8047)">
          <path
             d="M 0,0 V -4.404"
             style="fill:none;stroke:#393536;stroke-width:1;stroke-linecap:butt;stroke-linejoin:miter;stroke-miterlimit:10;stroke-dasharray:none;stroke-opacity:1"
             id="path234" />
        </g>
        <g
           id="g236"
           transform="translate(165.8105,232.8047)">
          <path
             d="M 0,0 V -4.404"
             style="fill:none;stroke:#393536;stroke-width:1;stroke-linecap:butt;stroke-linejoin:miter;stroke-miterlimit:10;stroke-dasharray:none;stroke-opacity:1"
             id="path238" />
        </g>
        <g
           id="g240"
           transform="translate(197.0029,230.6025)">
          <path
             d="m 0,0 c 0,-1.217 -0.986,-2.202 -2.202,-2.202 -1.218,0 -2.203,0.985 -2.203,2.202 0,1.216 0.985,2.202 2.203,2.202 C -0.986,2.202 0,1.216 0,0"
             style="fill:#393536;fill-opacity:1;fill-rule:nonzero;stroke:none"
             id="path242" />
        </g>
        <g
           id="g244"
           transform="translate(152.2666,38.9902)">
          <path
             d="M 0,0 V 12.181"
             style="fill:none;stroke:#393536;stroke-width:1;stroke-linecap:butt;stroke-linejoin:miter;stroke-miterlimit:10;stroke-dasharray:none;stroke-opacity:1"
             id="path246" />
        </g>
        <g
           id="g248"
           transform="translate(195.9453,51.1709)">
          <path
             d="m 0,0 c 3.363,0 6.091,-2.728 6.091,-6.091 0,-3.363 -2.728,-6.09 -6.091,-6.09"
             style="fill:none;stroke:#393536;stroke-width:1;stroke-linecap:butt;stroke-linejoin:miter;stroke-miterlimit:10;stroke-dasharray:none;stroke-opacity:1"
             id="path250" />
        </g>
        <g
           id="g252"
           transform="translate(180.8721,51.1709)">
          <path
             d="m 0,0 c 2.119,0 3.838,-2.728 3.838,-6.091 0,-3.363 -1.719,-6.09 -3.838,-6.09"
             style="fill:none;stroke:#393536;stroke-width:1;stroke-linecap:butt;stroke-linejoin:miter;stroke-miterlimit:10;stroke-dasharray:none;stroke-opacity:1"
             id="path254" />
        </g>
        <g
           id="g256"
           transform="translate(166.5693,51.1709)">
          <path
             d="m 0,0 c 1.087,0 1.967,-2.728 1.967,-6.091 0,-3.363 -0.88,-6.09 -1.967,-6.09"
             style="fill:none;stroke:#393536;stroke-width:1;stroke-linecap:butt;stroke-linejoin:miter;stroke-miterlimit:10;stroke-dasharray:none;stroke-opacity:1"
             id="path258" />
        </g>
        <path
           d="m 154.841,154.805 h -1.808 v 1.807 h 1.808 z"
           style="fill:#393536;fill-opacity:1;fill-rule:nonzero;stroke:none"
           id="path260" />
        <g
           id="g262"
           transform="translate(183.2275,17.5586)">
          <path
             d="m 0,0 -0.015,-4.946 -4.3,2.482 0.014,4.946 z"
             style="fill:#393536;fill-opacity:1;fill-rule:nonzero;stroke:none"
             id="path264" />
        </g>
        <g
           id="g266"
           transform="translate(183.2275,17.5586)">
          <path
             d="M 0,0 4.213,2.448 4.197,-2.498 -0.015,-4.946 Z"
             style="fill:#a7a5a6;fill-opacity:1;fill-rule:nonzero;stroke:none"
             id="path268" />
        </g>
        <g
           id="g270"
           transform="translate(178.9268,20.041)">
          <path
             d="M 0,0 4.213,2.447 8.514,-0.034 4.301,-2.482 Z"
             style="fill:#e9e9e9;fill-opacity:1;fill-rule:nonzero;stroke:none"
             id="path272" />
        </g>
        <g
           id="g274"
           transform="translate(167.4287,17.5547)">
          <path
             d="m 0,0 -0.008,-2.743 -2.386,1.377 0.009,2.743 z"
             style="fill:#393536;fill-opacity:1;fill-rule:nonzero;stroke:none"
             id="path276" />
        </g>
        <g
           id="g278"
           transform="translate(167.4287,17.5547)">
          <path
             d="M 0,0 2.337,1.358 2.329,-1.385 -0.008,-2.743 Z"
             style="fill:#a7a5a6;fill-opacity:1;fill-rule:nonzero;stroke:none"
             id="path280" />
        </g>
        <g
           id="g282"
           transform="translate(165.0439,18.9316)">
          <path
             d="M 0,0 2.337,1.358 4.722,-0.019 2.385,-1.377 Z"
             style="fill:#e9e9e9;fill-opacity:1;fill-rule:nonzero;stroke:none"
             id="path284" />
        </g>
        <g
           id="g286"
           transform="translate(152.2813,17.5527)">
          <path
             d="m 0,0 -0.004,-1.287 -1.119,0.645 0.004,1.288 z"
             style="fill:#393536;fill-opacity:1;fill-rule:nonzero;stroke:none"
             id="path288" />
        </g>
        <g
           id="g290"
           transform="translate(152.2813,17.5527)">
          <path
             d="M 0,0 1.097,0.638 1.093,-0.65 -0.004,-1.287 Z"
             style="fill:#a7a5a6;fill-opacity:1;fill-rule:nonzero;stroke:none"
             id="path292" />
        </g>
        <g
           id="g294"
           transform="translate(151.1621,18.1992)">
          <path
             d="M 0,0 1.097,0.637 2.216,-0.009 1.119,-0.646 Z"
             style="fill:#e9e9e9;fill-opacity:1;fill-rule:nonzero;stroke:none"
             id="path296" />
        </g>
      </g>
    </g>
    <text
       xml:space="preserve"
       transform="matrix(1,0,0,-1,9.7988,298.1655)"
       style="font-variant:normal;font-weight:bold;font-stretch:normal;font-size:10px;font-family:'Myriad Pro Light';-inkscape-font-specification:MyriadPro-Semibold;writing-mode:lr-tb;fill:#393536;fill-opacity:1;fill-rule:nonzero;stroke:none"
       id="text300"><tspan
         x="0 5.8499999 11.57 16.65 22.370001 28.09 33.25 35.82 39.990002 42.349998"
         y="0"
         sodipodi:role="line"
         id="tspan298">Channels: </tspan></text>
    <text
       xml:space="preserve"
       transform="matrix(1,0,0,-1,54.2188,298.1655)"
       style="font-variant:normal;font-weight:normal;font-stretch:normal;font-size:10px;font-family:'Myriad Pro';-inkscape-font-specification:MyriadPro-Regular;writing-mode:lr-tb;fill:#393536;fill-opacity:1;fill-rule:nonzero;stroke:none"
       id="text304"><tspan
         x="0 4.9200001 9.5500002 15.24 18.41 23.42 27.379999 31.34 33.68 38.389999 43.400002 48.950001 53.959999 57.919998 61.880001 63.59 68.160004 72.870003 78.559998 83.57 87.529999 89.650002 94.470001 100.02 105.66 107.78 112.7 118.4 123.41 128.02 131.33 133.67 138.38 143.39 148.94 153.95 157.91 161.87 163.99001 169.49001 174.31 179.86 184.55"
         y="0"
         sodipodi:role="line"
         id="tspan302">Expressiveness Types and Efectiveness Ranks</tspan></text>
    <g
       id="g306">
      <g
         id="g308"
         clip-path="url(#clipPath312)">
        <g
           id="g314"
           transform="translate(184.3467,177.3691)">
          <path
             d="M 0,0 H 15.328"
             style="fill:#393536;fill-opacity:1;fill-rule:nonzero;stroke:#393536;stroke-width:1;stroke-linecap:butt;stroke-linejoin:miter;stroke-miterlimit:10;stroke-dasharray:none;stroke-opacity:1"
             id="path316" />
        </g>
        <g
           id="g318"
           transform="translate(160.4951,177.3691)">
          <path
             d="M 0,0 V 13.758"
             style="fill:#393536;fill-opacity:1;fill-rule:nonzero;stroke:#393536;stroke-width:1;stroke-linecap:butt;stroke-linejoin:miter;stroke-miterlimit:10;stroke-dasharray:none;stroke-opacity:1"
             id="path320" />
        </g>
        <g
           id="g322"
           transform="translate(165.3672,177.3691)">
          <path
             d="M 0,0 10.838,10.84"
             style="fill:#393536;fill-opacity:1;fill-rule:nonzero;stroke:#393536;stroke-width:1;stroke-linecap:butt;stroke-linejoin:miter;stroke-miterlimit:10;stroke-dasharray:none;stroke-opacity:1"
             id="path324" />
        </g>
        <g
           id="g326"
           transform="translate(173.1416,177.3691)">
          <path
             d="M 0,0 14.307,5.5"
             style="fill:#393536;fill-opacity:1;fill-rule:nonzero;stroke:#393536;stroke-width:1;stroke-linecap:butt;stroke-linejoin:miter;stroke-miterlimit:10;stroke-dasharray:none;stroke-opacity:1"
             id="path328" />
        </g>
        <g
           id="g330"
           transform="translate(372.8809,213.542)">
          <path
             d="m 0,0 c 0.61,-0.6 0.987,-1.433 0.987,-2.354 0,-1.825 -1.48,-3.305 -3.305,-3.305 -1.826,0 -3.304,1.48 -3.304,3.305 0,0.497 0.109,0.967 0.305,1.388"
             style="fill:none;stroke:#393536;stroke-width:0.4;stroke-linecap:butt;stroke-linejoin:miter;stroke-miterlimit:10;stroke-dasharray:none;stroke-opacity:1"
             id="path332" />
        </g>
        <g
           id="g334"
           transform="translate(365.791,212.2461)">
          <path
             d="M 0,0 2.653,-1.014 2.205,1.79 Z"
             style="fill:#393536;fill-opacity:1;fill-rule:nonzero;stroke:none"
             id="path336" />
        </g>
        <g
           id="g338"
           transform="translate(372.6553,214.7598)">
          <path
             d="m 0,0 c 0,-1.174 -0.953,-2.124 -2.124,-2.124 -1.176,0 -2.126,0.95 -2.126,2.124 0,1.173 0.95,2.126 2.126,2.126 C -0.953,2.126 0,1.173 0,0"
             style="fill:#393536;fill-opacity:1;fill-rule:nonzero;stroke:none"
             id="path340" />
        </g>
        <g
           id="g342"
           transform="translate(392.915,207.1992)">
          <path
             d="m 0,0 c 0,-1.175 -0.953,-2.126 -2.125,-2.126 -1.175,0 -2.125,0.951 -2.125,2.126 0,1.172 0.95,2.125 2.125,2.125 C -0.953,2.125 0,1.172 0,0"
             style="fill:#393536;fill-opacity:1;fill-rule:nonzero;stroke:none"
             id="path344" />
        </g>
        <g
           id="g346"
           transform="translate(408.46,212.7686)">
          <path
             d="m 0,0 c 0,-1.175 -0.953,-2.125 -2.125,-2.125 -1.175,0 -2.125,0.95 -2.125,2.125 0,1.173 0.95,2.126 2.125,2.126 C -0.953,2.126 0,1.173 0,0"
             style="fill:#393536;fill-opacity:1;fill-rule:nonzero;stroke:none"
             id="path348" />
        </g>
        <g
           id="g350"
           transform="translate(424.7188,213.542)">
          <path
             d="m 0,0 c 0,-1.174 -0.953,-2.124 -2.126,-2.124 -1.175,0 -2.124,0.95 -2.124,2.124 0,1.173 0.949,2.126 2.124,2.126 C -0.953,2.126 0,1.173 0,0"
             style="fill:#393536;fill-opacity:1;fill-rule:nonzero;stroke:none"
             id="path352" />
        </g>
        <g
           id="g354"
           transform="translate(419.1123,198.8623)">
          <path
             d="m 0,0 c 0,-1.176 -0.954,-2.125 -2.126,-2.125 -1.174,0 -2.124,0.949 -2.124,2.125 0,1.173 0.95,2.125 2.124,2.125 C -0.954,2.125 0,1.173 0,0"
             style="fill:#393536;fill-opacity:1;fill-rule:nonzero;stroke:none"
             id="path356" />
        </g>
        <g
           id="g358"
           transform="translate(382.2998,202.9824)">
          <path
             d="m 0,0 c 0,-1.174 -0.953,-2.124 -2.123,-2.124 -1.176,0 -2.126,0.95 -2.126,2.124 0,1.174 0.95,2.126 2.126,2.126 C -0.953,2.126 0,1.174 0,0"
             style="fill:#393536;fill-opacity:1;fill-rule:nonzero;stroke:none"
             id="path360" />
        </g>
        <g
           id="g362"
           transform="translate(413.9678,198.4648)">
          <path
             d="m 0,0 c -0.854,-0.006 -1.711,0.315 -2.363,0.968 -1.289,1.29 -1.289,3.384 0.002,4.674 1.29,1.291 3.382,1.29 4.672,-0.001 C 2.662,5.29 2.918,4.88 3.079,4.444"
             style="fill:none;stroke:#393536;stroke-width:0.4;stroke-linecap:butt;stroke-linejoin:miter;stroke-miterlimit:10;stroke-dasharray:none;stroke-opacity:1"
             id="path364" />
        </g>
        <g
           id="g366"
           transform="translate(418.0664,204.3955)">
          <path
             d="m 0,0 -2.595,-1.16 2.301,-1.665 z"
             style="fill:#393536;fill-opacity:1;fill-rule:nonzero;stroke:none"
             id="path368" />
        </g>
        <g
           id="g370"
           transform="translate(153.2656,257.2441)">
          <path
             d="M 0,0 H 53.557"
             style="fill:none;stroke:#393536;stroke-width:1;stroke-linecap:butt;stroke-linejoin:miter;stroke-miterlimit:10;stroke-dasharray:none;stroke-opacity:1"
             id="path372" />
        </g>
        <g
           id="g374"
           transform="translate(206.8203,259.4463)">
          <path
             d="M 0,0 V -4.405"
             style="fill:none;stroke:#393536;stroke-width:1;stroke-linecap:butt;stroke-linejoin:miter;stroke-miterlimit:10;stroke-dasharray:none;stroke-opacity:1"
             id="path376" />
        </g>
        <g
           id="g378"
           transform="translate(153.2637,259.4463)">
          <path
             d="M 0,0 V -4.405"
             style="fill:none;stroke:#393536;stroke-width:1;stroke-linecap:butt;stroke-linejoin:miter;stroke-miterlimit:10;stroke-dasharray:none;stroke-opacity:1"
             id="path380" />
        </g>
        <g
           id="g382"
           transform="translate(167.8145,257.2441)">
          <path
             d="m 0,0 c 0,-1.217 -0.986,-2.203 -2.203,-2.203 -1.217,0 -2.202,0.986 -2.202,2.203 0,1.216 0.985,2.202 2.202,2.202 C -0.986,2.202 0,1.216 0,0"
             style="fill:#393536;fill-opacity:1;fill-rule:nonzero;stroke:none"
             id="path384" />
        </g>
        <g
           id="g386"
           transform="translate(220.0586,7.7363)">
          <path
             d="M 0,0 H 4.667 V 45.83 H 0"
             style="fill:none;stroke:#393536;stroke-width:1;stroke-linecap:butt;stroke-linejoin:miter;stroke-miterlimit:10;stroke-dasharray:none;stroke-opacity:1"
             id="path388" />
        </g>
        <g
           id="g390"
           transform="translate(221.6494,21.584)">
          <path
             d="m 0,0 c 0.184,0.312 0.344,0.8 0.344,1.303 0,0.624 -0.295,0.975 -0.735,0.975 -0.408,0 -0.648,-0.271 -0.896,-0.951 -0.32,-0.895 -0.791,-1.463 -1.567,-1.463 -0.888,0 -1.55,0.736 -1.55,1.911 0,0.583 0.127,1.007 0.271,1.288 L -3.342,2.83 C -3.445,2.631 -3.598,2.255 -3.598,1.751 c 0,-0.624 0.328,-0.888 0.649,-0.888 0.414,0 0.607,0.313 0.886,1.032 0.352,0.935 0.825,1.383 1.6,1.383 C 0.408,3.278 1.16,2.622 1.16,1.239 1.16,0.664 1,0.072 0.816,-0.224 Z"
             style="fill:#393536;fill-opacity:1;fill-rule:nonzero;stroke:none"
             id="path392" />
        </g>
        <g
           id="g394"
           transform="translate(220.8174,27.8232)">
          <path
             d="m 0,0 c -0.008,-0.696 0.137,-1.359 0.729,-1.359 0.382,0 0.56,0.248 0.56,0.559 0,0.4 -0.256,0.68 -0.537,0.776 C 0.68,0 0.609,0 0.537,0 Z m 0.969,0.959 c 0.351,0 0.695,0.017 0.935,0.064 V 0.136 L 1.473,0.063 V 0.04 c 0.302,-0.232 0.519,-0.64 0.519,-1.151 0,-0.785 -0.568,-1.224 -1.16,-1.224 -0.975,0 -1.478,0.871 -1.471,2.311 h -0.064 c -0.256,0 -0.68,-0.104 -0.68,-0.791 0,-0.384 0.121,-0.785 0.289,-1.048 l -0.64,-0.192 c -0.176,0.287 -0.344,0.791 -0.344,1.408 0,1.247 0.791,1.606 1.646,1.606 z"
             style="fill:#393536;fill-opacity:1;fill-rule:nonzero;stroke:none"
             id="path396" />
        </g>
        <g
           id="g398"
           transform="translate(219.9873,29.8232)">
          <path
             d="m 0,0 c -0.449,0 -0.824,-0.016 -1.16,-0.031 v 0.839 l 0.576,0.047 V 0.88 c -0.305,0.183 -0.664,0.536 -0.664,1.199 0,0.512 0.287,0.912 0.721,1.079 v 0.017 c -0.217,0.136 -0.377,0.296 -0.489,0.471 -0.152,0.224 -0.232,0.472 -0.232,0.8 0,0.64 0.439,1.295 1.687,1.295 H 2.734 V 4.782 h -2.15 c -0.648,0 -1.033,-0.224 -1.033,-0.696 0,-0.336 0.24,-0.583 0.521,-0.688 C 0.16,3.366 0.287,3.351 0.398,3.351 H 2.734 V 2.391 H 0.479 c -0.543,0 -0.928,-0.216 -0.928,-0.671 0,-0.368 0.289,-0.616 0.553,-0.712 C 0.207,0.976 0.318,0.96 0.432,0.96 H 2.734 V 0 Z"
             style="fill:#393536;fill-opacity:1;fill-rule:nonzero;stroke:none"
             id="path400" />
        </g>
        <g
           id="g402"
           transform="translate(220.3623,39.0146)">
          <path
             d="m 0,0 c -0.359,0.008 -0.951,-0.152 -0.951,-0.808 0,-0.607 0.551,-0.863 0.951,-0.903 z m 0.688,-1.711 c 0.703,0.023 1.007,0.567 1.007,1.199 0,0.456 -0.072,0.776 -0.175,1.079 l 0.671,0.145 c 0.143,-0.336 0.248,-0.8 0.248,-1.359 0,-1.264 -0.775,-2.007 -1.966,-2.007 -1.08,0 -2.096,0.655 -2.096,1.902 0,1.264 1.039,1.68 1.894,1.68 0.184,0 0.329,-0.017 0.417,-0.032 z"
             style="fill:#393536;fill-opacity:1;fill-rule:nonzero;stroke:none"
             id="path404" />
        </g>
        <g
           id="g406"
           transform="translate(149.2822,127.5908)">
          <path
             d="M 0,0 H 9.93"
             style="fill:none;stroke:#393536;stroke-width:1;stroke-linecap:butt;stroke-linejoin:miter;stroke-miterlimit:10;stroke-dasharray:none;stroke-opacity:1"
             id="path408" />
        </g>
        <g
           id="g410"
           transform="translate(149.2822,129.8828)">
          <path
             d="M 0,0 V -4.404"
             style="fill:none;stroke:#393536;stroke-width:1;stroke-linecap:butt;stroke-linejoin:miter;stroke-miterlimit:10;stroke-dasharray:none;stroke-opacity:1"
             id="path412" />
        </g>
        <g
           id="g414"
           transform="translate(158.9346,125.416)">
          <path
             d="M 0,0 H -1.508 L 0.079,1.614 V 2.731 L -1.508,4.352 H 0 l 2.07,-2.17 v -0.02 z"
             style="fill:#393536;fill-opacity:1;fill-rule:nonzero;stroke:none"
             id="path416" />
        </g>
        <g
           id="g418"
           transform="translate(166.248,127.5918)">
          <path
             d="m 0,0 c 0,-1.216 -0.986,-2.202 -2.203,-2.202 -1.217,0 -2.202,0.986 -2.202,2.202 0,1.217 0.985,2.203 2.202,2.203 C -0.986,2.203 0,1.217 0,0"
             style="fill:#393536;fill-opacity:1;fill-rule:nonzero;stroke:none"
             id="path420" />
        </g>
        <g
           id="g422"
           transform="translate(173.1436,127.5898)">
          <path
             d="M 0,0 H 26.748"
             style="fill:none;stroke:#393536;stroke-width:1;stroke-linecap:butt;stroke-linejoin:miter;stroke-miterlimit:10;stroke-dasharray:none;stroke-opacity:1"
             id="path424" />
        </g>
        <g
           id="g426"
           transform="translate(173.1416,129.792)">
          <path
             d="M 0,0 V -4.404"
             style="fill:none;stroke:#393536;stroke-width:1;stroke-linecap:butt;stroke-linejoin:miter;stroke-miterlimit:10;stroke-dasharray:none;stroke-opacity:1"
             id="path428" />
        </g>
        <g
           id="g430"
           transform="translate(199.8125,125.415)">
          <path
             d="M 0,0 H -1.508 L 0.079,1.614 V 2.731 L -1.508,4.352 H 0 l 2.07,-2.17 v -0.02 z"
             style="fill:#393536;fill-opacity:1;fill-rule:nonzero;stroke:none"
             id="path432" />
        </g>
        <g
           id="g434"
           transform="translate(208.127,127.5908)">
          <path
             d="m 0,0 c 0,-1.216 -0.986,-2.202 -2.203,-2.202 -1.217,0 -2.202,0.986 -2.202,2.202 0,1.217 0.985,2.203 2.202,2.203 C -0.986,2.203 0,1.217 0,0"
             style="fill:#393536;fill-opacity:1;fill-rule:nonzero;stroke:none"
             id="path436" />
        </g>
        <g
           id="g438"
           transform="translate(245.751,238.9424)">
          <path
             d="M 0,0 V -199.378"
             style="fill:none;stroke:#393536;stroke-width:1;stroke-linecap:butt;stroke-linejoin:miter;stroke-miterlimit:10;stroke-dasharray:none;stroke-opacity:1"
             id="path440" />
        </g>
        <path
           d="m 252.788,113.934 h -14.332 v 50.281 h 14.332 z"
           style="fill:#ffffff;fill-opacity:1;fill-rule:nonzero;stroke:none"
           id="path442" />
        <g
           id="g444"
           transform="translate(248.6406,13.8135)">
          <path
             d="M 0,0 H -5.779 L -2.89,-5 Z"
             style="fill:#393536;fill-opacity:1;fill-rule:nonzero;stroke:none"
             id="path446" />
        </g>
        <g
           id="g448"
           transform="translate(246.0625,120.5654)">
          <path
             d="m 0,0 v -2.088 h 1.943 v 2.334 h 0.584 v -3.037 h -5.388 v 2.918 h 0.582 v -2.215 h 1.703 V 0 Z"
             style="fill:#393536;fill-opacity:1;fill-rule:nonzero;stroke:none"
             id="path450" />
        </g>
        <g
           id="g452"
           transform="translate(248.5898,124.0928)">
          <path
             d="M 0,0 H -3.334 V -1.631 H 0 v -0.697 h -3.334 v -0.535 h -0.537 v 0.535 H -3.99 c -0.543,0 -1.008,0.129 -1.321,0.433 -0.222,0.223 -0.359,0.543 -0.359,0.975 0,0.225 0.072,0.432 0.137,0.551 l 0.527,-0.143 c -0.057,-0.103 -0.103,-0.256 -0.103,-0.416 0,-0.552 0.47,-0.703 1.078,-0.703 h 0.16 V 0 h -0.184 c -0.543,0 -1.039,0.119 -1.351,0.447 -0.256,0.264 -0.36,0.616 -0.36,0.936 0,0.256 0.057,0.471 0.112,0.599 L -5.109,1.895 C -5.158,1.783 -5.197,1.646 -5.197,1.439 c 0,-0.591 0.519,-0.744 1.119,-0.744 h 0.207 v 0.928 h 0.537 V 0.695 l 3.334,0 z"
             style="fill:#393536;fill-opacity:1;fill-rule:nonzero;stroke:none"
             id="path454" />
        </g>
        <g
           id="g456"
           transform="translate(246.2793,128.708)">
          <path
             d="m 0,0 c -0.441,0.008 -1.137,-0.184 -1.137,-0.975 0,-0.718 0.649,-1.023 1.137,-1.08 z m 0.504,-2.063 c 0.951,0.016 1.342,0.616 1.342,1.329 0,0.504 -0.088,0.814 -0.2,1.07 L 2.15,0.465 c 0.112,-0.248 0.248,-0.68 0.248,-1.295 0,-1.191 -0.793,-1.904 -1.959,-1.904 -1.168,0 -2.08,0.687 -2.08,1.816 0,1.272 1.104,1.598 1.817,1.598 0.142,0 0.248,-0.008 0.328,-0.024 z"
             style="fill:#393536;fill-opacity:1;fill-rule:nonzero;stroke:none"
             id="path458" />
        </g>
        <g
           id="g460"
           transform="translate(248.4531,133.0205)">
          <path
             d="m 0,0 c 0.088,-0.184 0.225,-0.592 0.225,-1.111 0,-1.168 -0.793,-1.928 -1.975,-1.928 -1.191,0 -2.064,0.816 -2.064,2.08 0,0.416 0.105,0.783 0.209,0.975 l 0.535,-0.161 c -0.088,-0.168 -0.184,-0.431 -0.184,-0.814 0,-0.889 0.664,-1.367 1.463,-1.367 0.896,0 1.447,0.574 1.447,1.342 0,0.4 -0.095,0.664 -0.183,0.865 z"
             style="fill:#393536;fill-opacity:1;fill-rule:nonzero;stroke:none"
             id="path462" />
        </g>
        <g
           id="g464"
           transform="translate(243.791,134.7979)">
          <path
             d="M 0,0 H 0.928 V 1.006 H 1.465 V 0 h 2.086 c 0.48,0 0.752,0.135 0.752,0.527 0,0.192 -0.016,0.303 -0.049,0.409 L 4.791,0.967 C 4.838,0.83 4.887,0.615 4.887,0.344 4.887,0.016 4.773,-0.248 4.59,-0.416 4.375,-0.609 4.031,-0.689 3.574,-0.689 H 1.465 v -0.6 H 0.928 v 0.6 H 0.209 Z"
             style="fill:#393536;fill-opacity:1;fill-rule:nonzero;stroke:none"
             id="path466" />
        </g>
        <path
           d="m 248.59,136.599 h -3.871 v 0.703 h 3.871 z m -4.957,0.783 c 0.238,0 0.431,-0.168 0.431,-0.447 0,-0.256 -0.193,-0.424 -0.431,-0.424 -0.24,0 -0.442,0.176 -0.442,0.439 0,0.256 0.194,0.432 0.442,0.432"
           style="fill:#393536;fill-opacity:1;fill-rule:nonzero;stroke:none"
           id="path468" />
        <g
           id="g470"
           transform="translate(244.7188,138.7412)">
          <path
             d="m 0,0 2.168,0.76 c 0.359,0.129 0.68,0.232 0.998,0.312 V 1.096 C 2.848,1.184 2.527,1.295 2.168,1.424 L 0,2.176 V 2.91 L 3.871,1.393 V 0.721 L 0,-0.752 Z"
             style="fill:#393536;fill-opacity:1;fill-rule:nonzero;stroke:none"
             id="path472" />
        </g>
        <g
           id="g474"
           transform="translate(246.2793,144.6924)">
          <path
             d="M 0,0 C -0.441,0.008 -1.137,-0.184 -1.137,-0.977 -1.137,-1.695 -0.488,-2 0,-2.055 Z m 0.504,-2.063 c 0.951,0.016 1.342,0.616 1.342,1.327 0,0.504 -0.088,0.816 -0.2,1.072 L 2.15,0.463 c 0.112,-0.248 0.248,-0.68 0.248,-1.295 0,-1.191 -0.793,-1.902 -1.959,-1.902 -1.168,0 -2.08,0.687 -2.08,1.814 0,1.272 1.104,1.6 1.817,1.6 0.142,0 0.248,-0.008 0.328,-0.024 z"
             style="fill:#393536;fill-opacity:1;fill-rule:nonzero;stroke:none"
             id="path476" />
        </g>
        <g
           id="g478"
           transform="translate(245.7676,146.2451)">
          <path
             d="m 0,0 c -0.408,0 -0.729,-0.008 -1.049,-0.031 v 0.623 l 0.641,0.041 v 0.015 c -0.36,0.192 -0.721,0.639 -0.721,1.28 0,0.535 0.32,1.367 1.649,1.367 H 2.822 V 2.59 h -2.23 c -0.625,0 -1.145,-0.231 -1.145,-0.895 0,-0.455 0.328,-0.816 0.721,-0.943 C 0.256,0.721 0.375,0.703 0.494,0.703 H 2.822 V 0 Z"
             style="fill:#393536;fill-opacity:1;fill-rule:nonzero;stroke:none"
             id="path480" />
        </g>
        <g
           id="g482"
           transform="translate(246.2793,153.1396)">
          <path
             d="m 0,0 c -0.441,0.008 -1.137,-0.184 -1.137,-0.975 0,-0.718 0.649,-1.023 1.137,-1.08 z m 0.504,-2.063 c 0.951,0.016 1.342,0.616 1.342,1.329 0,0.504 -0.088,0.814 -0.2,1.07 L 2.15,0.465 c 0.112,-0.248 0.248,-0.68 0.248,-1.295 0,-1.191 -0.793,-1.904 -1.959,-1.904 -1.168,0 -2.08,0.687 -2.08,1.816 0,1.272 1.104,1.598 1.817,1.598 0.142,0 0.248,-0.008 0.328,-0.024 z"
             style="fill:#393536;fill-opacity:1;fill-rule:nonzero;stroke:none"
             id="path484" />
        </g>
        <g
           id="g486"
           transform="translate(247.877,154.5967)">
          <path
             d="m 0,0 c 0.129,0.217 0.273,0.584 0.273,0.936 0,0.503 -0.248,0.744 -0.576,0.744 -0.336,0 -0.511,-0.2 -0.703,-0.711 -0.256,-0.703 -0.633,-1.032 -1.096,-1.032 -0.625,0 -1.136,0.512 -1.136,1.334 0,0.393 0.105,0.737 0.24,0.944 L -2.486,2.047 C -2.582,1.896 -2.717,1.615 -2.717,1.256 c 0,-0.416 0.238,-0.639 0.528,-0.639 0.318,0 0.462,0.223 0.662,0.727 0.248,0.664 0.584,1.015 1.16,1.015 0.687,0 1.168,-0.535 1.168,-1.439 0,-0.424 -0.113,-0.815 -0.272,-1.086 z"
             style="fill:#393536;fill-opacity:1;fill-rule:nonzero;stroke:none"
             id="path488" />
        </g>
        <g
           id="g490"
           transform="translate(247.877,157.7646)">
          <path
             d="m 0,0 c 0.129,0.217 0.273,0.584 0.273,0.936 0,0.503 -0.248,0.744 -0.576,0.744 -0.336,0 -0.511,-0.2 -0.703,-0.711 -0.256,-0.703 -0.633,-1.032 -1.096,-1.032 -0.625,0 -1.136,0.512 -1.136,1.334 0,0.393 0.105,0.737 0.24,0.944 L -2.486,2.047 C -2.582,1.896 -2.717,1.615 -2.717,1.256 c 0,-0.416 0.238,-0.639 0.528,-0.639 0.318,0 0.462,0.223 0.662,0.727 0.248,0.664 0.584,1.015 1.16,1.015 0.687,0 1.168,-0.535 1.168,-1.439 0,-0.424 -0.113,-0.815 -0.272,-1.086 z"
             style="fill:#393536;fill-opacity:1;fill-rule:nonzero;stroke:none"
             id="path492" />
        </g>
        <g
           id="g494"
           transform="translate(243.0127,18.4277)">
          <path
             d="M 0,0 V 0.703 H 4.805 V 3.006 H 5.389 L 5.389,0 Z"
             style="fill:#393536;fill-opacity:1;fill-rule:nonzero;stroke:none"
             id="path496" />
        </g>
        <g
           id="g498"
           transform="translate(246.0908,24.5293)">
          <path
             d="M 0,0 C -0.439,0.008 -1.135,-0.184 -1.135,-0.977 -1.135,-1.695 -0.488,-2 0,-2.055 Z m 0.504,-2.063 c 0.951,0.016 1.344,0.616 1.344,1.327 0,0.504 -0.088,0.816 -0.202,1.072 L 2.15,0.463 c 0.114,-0.248 0.248,-0.68 0.248,-1.295 0,-1.191 -0.791,-1.902 -1.959,-1.902 -1.166,0 -2.078,0.687 -2.078,1.814 0,1.272 1.104,1.6 1.815,1.6 0.144,0 0.248,-0.008 0.328,-0.024 z"
             style="fill:#393536;fill-opacity:1;fill-rule:nonzero;stroke:none"
             id="path500" />
        </g>
        <g
           id="g502"
           transform="translate(246.4268,28.1211)">
          <path
             d="m 0,0 c -0.016,-0.768 0.119,-1.639 0.871,-1.639 0.465,0 0.672,0.303 0.672,0.655 0,0.511 -0.32,0.839 -0.647,0.953 C 0.816,-0.008 0.736,0 0.672,0 Z m 1.047,0.68 c 0.336,0 0.664,0.015 0.928,0.056 V 0.104 L 1.488,0.049 V 0.023 c 0.303,-0.214 0.575,-0.63 0.575,-1.183 0,-0.783 -0.551,-1.182 -1.112,-1.182 -0.935,0 -1.447,0.83 -1.439,2.326 h -0.08 c -0.311,0 -0.895,-0.088 -0.887,-0.879 0,-0.369 0.103,-0.744 0.287,-1.015 l -0.471,-0.16 c -0.199,0.318 -0.336,0.791 -0.336,1.279 0,1.184 0.807,1.471 1.575,1.471 z"
             style="fill:#393536;fill-opacity:1;fill-rule:nonzero;stroke:none"
             id="path504" />
        </g>
        <g
           id="g506"
           transform="translate(247.6904,29.8418)">
          <path
             d="m 0,0 c 0.127,0.217 0.271,0.584 0.271,0.936 0,0.503 -0.248,0.744 -0.576,0.744 -0.336,0 -0.511,-0.201 -0.703,-0.713 -0.256,-0.703 -0.631,-1.031 -1.096,-1.031 -0.623,0 -1.134,0.511 -1.134,1.335 0,0.391 0.103,0.737 0.24,0.944 L -2.486,2.047 C -2.582,1.895 -2.719,1.615 -2.719,1.256 c 0,-0.416 0.24,-0.641 0.528,-0.641 0.32,0 0.464,0.225 0.664,0.729 0.248,0.664 0.584,1.015 1.16,1.015 0.687,0 1.166,-0.537 1.166,-1.439 0,-0.424 -0.111,-0.816 -0.272,-1.088 z"
             style="fill:#393536;fill-opacity:1;fill-rule:nonzero;stroke:none"
             id="path508" />
        </g>
        <g
           id="g510"
           transform="translate(243.6045,33.9531)">
          <path
             d="M 0,0 H 0.928 V 1.008 H 1.463 V 0 h 2.088 c 0.478,0 0.75,0.137 0.75,0.527 0,0.192 -0.016,0.305 -0.047,0.409 L 4.789,0.967 C 4.838,0.832 4.885,0.615 4.885,0.344 4.885,0.016 4.773,-0.248 4.59,-0.416 4.373,-0.607 4.029,-0.688 3.574,-0.688 H 1.463 V -1.287 H 0.928 v 0.599 H 0.207 Z"
             style="fill:#393536;fill-opacity:1;fill-rule:nonzero;stroke:none"
             id="path512" />
        </g>
        <g
           id="g514"
           transform="translate(220.0586,62.7109)">
          <path
             d="M 0,0 H 4.667 V 45.83 H 0"
             style="fill:none;stroke:#393536;stroke-width:1;stroke-linecap:butt;stroke-linejoin:miter;stroke-miterlimit:10;stroke-dasharray:none;stroke-opacity:1"
             id="path516" />
        </g>
        <g
           id="g518"
           transform="translate(221.6494,76.5586)">
          <path
             d="m 0,0 c 0.184,0.312 0.344,0.8 0.344,1.303 0,0.624 -0.295,0.975 -0.735,0.975 -0.408,0 -0.648,-0.271 -0.896,-0.951 -0.32,-0.895 -0.791,-1.463 -1.567,-1.463 -0.888,0 -1.55,0.736 -1.55,1.911 0,0.583 0.127,1.007 0.271,1.288 L -3.342,2.83 C -3.445,2.631 -3.598,2.255 -3.598,1.751 c 0,-0.624 0.328,-0.888 0.649,-0.888 0.414,0 0.607,0.313 0.886,1.032 0.352,0.935 0.825,1.383 1.6,1.383 C 0.408,3.278 1.16,2.622 1.16,1.239 1.16,0.664 1,0.072 0.816,-0.224 Z"
             style="fill:#393536;fill-opacity:1;fill-rule:nonzero;stroke:none"
             id="path520" />
        </g>
        <g
           id="g522"
           transform="translate(220.8174,82.7979)">
          <path
             d="m 0,0 c -0.008,-0.696 0.137,-1.359 0.729,-1.359 0.382,0 0.56,0.248 0.56,0.559 0,0.4 -0.256,0.68 -0.537,0.776 C 0.68,0 0.609,0 0.537,0 Z m 0.969,0.959 c 0.351,0 0.695,0.017 0.935,0.064 V 0.136 L 1.473,0.063 V 0.04 c 0.302,-0.232 0.519,-0.64 0.519,-1.151 0,-0.785 -0.568,-1.224 -1.16,-1.224 -0.975,0 -1.478,0.871 -1.471,2.311 h -0.064 c -0.256,0 -0.68,-0.104 -0.68,-0.791 0,-0.384 0.121,-0.785 0.289,-1.048 l -0.64,-0.192 c -0.176,0.287 -0.344,0.791 -0.344,1.408 0,1.247 0.791,1.606 1.646,1.606 z"
             style="fill:#393536;fill-opacity:1;fill-rule:nonzero;stroke:none"
             id="path524" />
        </g>
        <g
           id="g526"
           transform="translate(219.9873,84.7979)">
          <path
             d="m 0,0 c -0.449,0 -0.824,-0.016 -1.16,-0.031 v 0.839 l 0.576,0.047 V 0.88 c -0.305,0.183 -0.664,0.536 -0.664,1.199 0,0.512 0.287,0.912 0.721,1.079 v 0.017 c -0.217,0.136 -0.377,0.296 -0.489,0.471 -0.152,0.224 -0.232,0.472 -0.232,0.8 0,0.64 0.439,1.295 1.687,1.295 H 2.734 V 4.782 h -2.15 c -0.648,0 -1.033,-0.224 -1.033,-0.696 0,-0.336 0.24,-0.583 0.521,-0.688 C 0.16,3.366 0.287,3.351 0.398,3.351 H 2.734 V 2.391 H 0.479 c -0.543,0 -0.928,-0.216 -0.928,-0.671 0,-0.368 0.289,-0.616 0.553,-0.712 C 0.207,0.976 0.318,0.96 0.432,0.96 H 2.734 V 0 Z"
             style="fill:#393536;fill-opacity:1;fill-rule:nonzero;stroke:none"
             id="path528" />
        </g>
        <g
           id="g530"
           transform="translate(220.3623,93.9893)">
          <path
             d="m 0,0 c -0.359,0.008 -0.951,-0.152 -0.951,-0.808 0,-0.607 0.551,-0.863 0.951,-0.903 z m 0.688,-1.711 c 0.703,0.023 1.007,0.567 1.007,1.199 0,0.456 -0.072,0.776 -0.175,1.079 l 0.671,0.145 c 0.143,-0.336 0.248,-0.8 0.248,-1.359 0,-1.264 -0.775,-2.007 -1.966,-2.007 -1.08,0 -2.096,0.655 -2.096,1.902 0,1.264 1.039,1.68 1.894,1.68 0.184,0 0.329,-0.017 0.417,-0.032 z"
             style="fill:#393536;fill-opacity:1;fill-rule:nonzero;stroke:none"
             id="path532" />
        </g>
        <g
           id="g534"
           transform="translate(242.8613,265.2832)">
          <path
             d="M 0,0 H 5.779 L 2.89,5 Z"
             style="fill:#393536;fill-opacity:1;fill-rule:nonzero;stroke:none"
             id="path536" />
        </g>
        <g
           id="g538"
           transform="translate(263.5029,279.1729)">
          <path
             d="M 0,0 H -1.41 L 0.076,1.51 H -3.145 V 2.555 H 0.076 L -1.41,4.07 H 0 L 1.939,2.041 V 2.023 Z M 3.492,2.041 C 3.492,2.42 3.443,2.787 3.344,3.139 3.244,3.492 3.104,3.824 2.922,4.133 2.74,4.441 2.523,4.723 2.27,4.975 2.016,5.225 1.736,5.441 1.428,5.623 1.121,5.805 0.791,5.945 0.438,6.043 0.084,6.143 -0.281,6.191 -0.662,6.191 -1.041,6.191 -1.408,6.143 -1.76,6.043 -2.113,5.945 -2.443,5.805 -2.754,5.623 -3.063,5.441 -3.346,5.225 -3.6,4.971 -3.852,4.717 -4.07,4.438 -4.252,4.129 -4.434,3.822 -4.574,3.492 -4.676,3.139 -4.777,2.787 -4.828,2.42 -4.828,2.041 c 0,-0.379 0.051,-0.744 0.152,-1.098 0.102,-0.351 0.242,-0.683 0.424,-0.992 0.182,-0.31 0.4,-0.592 0.656,-0.844 0.256,-0.255 0.539,-0.472 0.848,-0.654 0.31,-0.18 0.641,-0.322 0.994,-0.424 0.354,-0.099 0.717,-0.15 1.092,-0.15 0.57,0 1.107,0.109 1.609,0.33 0.504,0.221 0.946,0.52 1.323,0.898 0.376,0.377 0.675,0.819 0.894,1.323 0.219,0.506 0.328,1.043 0.328,1.611 M 3.914,2.049 C 3.914,1.631 3.857,1.229 3.746,0.838 3.635,0.449 3.479,0.084 3.279,-0.256 3.078,-0.596 2.838,-0.906 2.561,-1.188 2.281,-1.467 1.973,-1.707 1.633,-1.908 1.291,-2.107 0.928,-2.264 0.539,-2.375 0.152,-2.486 -0.25,-2.543 -0.668,-2.543 c -0.416,0 -0.818,0.057 -1.207,0.168 -0.387,0.111 -0.752,0.268 -1.092,0.471 -0.342,0.201 -0.652,0.443 -0.931,0.722 -0.282,0.282 -0.522,0.592 -0.721,0.932 -0.201,0.34 -0.358,0.703 -0.469,1.092 -0.111,0.387 -0.166,0.789 -0.166,1.207 0,0.42 0.055,0.824 0.166,1.211 0.111,0.388 0.268,0.752 0.469,1.092 0.199,0.339 0.439,0.65 0.721,0.927 0.279,0.28 0.589,0.518 0.931,0.719 0.34,0.199 0.705,0.354 1.092,0.463 0.389,0.109 0.791,0.164 1.207,0.164 0.418,0 0.82,-0.057 1.207,-0.166 C 0.928,6.348 1.291,6.191 1.633,5.992 1.973,5.791 2.281,5.551 2.561,5.271 2.838,4.99 3.078,4.682 3.279,4.342 3.479,4.004 3.635,3.643 3.746,3.254 3.857,2.867 3.914,2.465 3.914,2.049"
             style="fill:#393536;fill-opacity:1;fill-rule:nonzero;stroke:none"
             id="path540" />
        </g>
        <g
           id="g542"
           transform="translate(15.4014,279.1729)">
          <path
             d="M 0,0 H -1.41 L 0.076,1.51 H -3.145 V 2.555 H 0.076 L -1.41,4.07 H 0 L 1.939,2.041 V 2.023 Z M 3.492,2.041 C 3.492,2.42 3.443,2.787 3.344,3.139 3.244,3.492 3.104,3.824 2.922,4.133 2.74,4.441 2.523,4.723 2.27,4.975 2.016,5.225 1.736,5.441 1.428,5.623 1.121,5.805 0.791,5.945 0.438,6.043 0.084,6.143 -0.281,6.191 -0.662,6.191 -1.041,6.191 -1.408,6.143 -1.76,6.043 -2.113,5.945 -2.443,5.805 -2.754,5.623 -3.063,5.441 -3.346,5.225 -3.6,4.971 -3.852,4.717 -4.07,4.438 -4.252,4.129 -4.434,3.822 -4.574,3.492 -4.676,3.139 -4.777,2.787 -4.828,2.42 -4.828,2.041 c 0,-0.379 0.051,-0.744 0.152,-1.098 0.102,-0.351 0.242,-0.683 0.424,-0.992 0.182,-0.31 0.4,-0.592 0.656,-0.844 0.256,-0.255 0.539,-0.472 0.848,-0.654 0.31,-0.18 0.641,-0.322 0.994,-0.424 0.354,-0.099 0.717,-0.15 1.092,-0.15 0.57,0 1.107,0.109 1.609,0.33 0.504,0.221 0.946,0.52 1.323,0.898 0.376,0.377 0.675,0.819 0.894,1.323 0.219,0.506 0.328,1.043 0.328,1.611 M 3.914,2.049 C 3.914,1.631 3.857,1.229 3.746,0.838 3.635,0.449 3.479,0.084 3.279,-0.256 3.078,-0.596 2.838,-0.906 2.561,-1.188 2.281,-1.467 1.973,-1.707 1.633,-1.908 1.291,-2.107 0.928,-2.264 0.539,-2.375 0.152,-2.486 -0.25,-2.543 -0.668,-2.543 c -0.416,0 -0.818,0.057 -1.207,0.168 -0.387,0.111 -0.752,0.268 -1.092,0.471 -0.342,0.201 -0.652,0.443 -0.931,0.722 -0.282,0.282 -0.522,0.592 -0.721,0.932 -0.201,0.34 -0.358,0.703 -0.469,1.092 -0.111,0.387 -0.166,0.789 -0.166,1.207 0,0.42 0.055,0.824 0.166,1.211 0.111,0.388 0.268,0.752 0.469,1.092 0.199,0.339 0.439,0.65 0.721,0.927 0.279,0.28 0.589,0.518 0.931,0.719 0.34,0.199 0.705,0.354 1.092,0.463 0.389,0.109 0.791,0.164 1.207,0.164 0.418,0 0.82,-0.057 1.207,-0.166 C 0.928,6.348 1.291,6.191 1.633,5.992 1.973,5.791 2.281,5.551 2.561,5.271 2.838,4.99 3.078,4.682 3.279,4.342 3.479,4.004 3.635,3.643 3.746,3.254 3.857,2.867 3.914,2.465 3.914,2.049"
             style="fill:#393536;fill-opacity:1;fill-rule:nonzero;stroke:none"
             id="path544" />
        </g>
        <g
           id="g546"
           transform="translate(246.0342,248.5254)">
          <path
             d="m 0,0 c -0.751,-0.04 -1.662,-0.088 -2.326,-0.088 v -0.016 c 0.624,-0.192 1.303,-0.408 2.047,-0.68 l 2.614,-0.951 v -0.528 l -2.566,-0.88 c -0.768,-0.255 -1.456,-0.463 -2.095,-0.615 v -0.016 c 0.672,-0.016 1.567,-0.056 2.383,-0.104 l 2.31,-0.144 v -0.664 l -5.388,0.376 v 0.887 l 2.606,0.92 c 0.663,0.224 1.255,0.399 1.814,0.544 v 0.016 c -0.543,0.144 -1.134,0.336 -1.814,0.576 l -2.606,0.959 V 0.479 L 2.367,0.815 V 0.128 Z"
             style="fill:#393536;fill-opacity:1;fill-rule:nonzero;stroke:none"
             id="path548" />
        </g>
        <g
           id="g550"
           transform="translate(246.4746,250.8789)">
          <path
             d="m 0,0 c 0.848,0 1.487,0.479 1.487,1.167 0,0.672 -0.632,1.176 -1.504,1.176 -0.655,0 -1.478,-0.328 -1.478,-1.159 C -1.495,0.359 -0.728,0 0,0 m -0.04,3.063 c 1.431,0 2.055,-1 2.055,-1.927 0,-1.04 -0.768,-1.856 -1.992,-1.856 -1.287,0 -2.046,0.856 -2.046,1.919 0,1.112 0.807,1.864 1.983,1.864"
             style="fill:#393536;fill-opacity:1;fill-rule:nonzero;stroke:none"
             id="path552" />
        </g>
        <g
           id="g554"
           transform="translate(247.6895,254.7344)">
          <path
             d="m 0,0 c 0.128,0.216 0.272,0.584 0.272,0.936 0,0.503 -0.248,0.744 -0.576,0.744 -0.336,0 -0.511,-0.201 -0.703,-0.712 -0.256,-0.703 -0.632,-1.031 -1.096,-1.031 -0.624,0 -1.135,0.511 -1.135,1.334 0,0.392 0.104,0.736 0.24,0.944 L -2.486,2.047 C -2.582,1.896 -2.718,1.615 -2.718,1.256 c 0,-0.416 0.239,-0.64 0.528,-0.64 0.319,0 0.463,0.224 0.664,0.728 0.247,0.663 0.583,1.015 1.159,1.015 C 0.32,2.359 0.8,1.823 0.8,0.92 0.8,0.496 0.688,0.104 0.528,-0.167 Z"
             style="fill:#393536;fill-opacity:1;fill-rule:nonzero;stroke:none"
             id="path556" />
        </g>
        <g
           id="g558"
           transform="translate(243.6045,258.8467)">
          <path
             d="M 0,0 H 0.927 V 1.007 H 1.463 V 0 H 3.55 c 0.479,0 0.751,0.136 0.751,0.527 0,0.192 -0.016,0.304 -0.048,0.409 L 4.789,0.967 C 4.837,0.831 4.885,0.615 4.885,0.344 4.885,0.016 4.772,-0.248 4.589,-0.416 4.373,-0.608 4.029,-0.688 3.573,-0.688 h -2.11 v -0.6 H 0.927 v 0.6 h -0.72 z"
             style="fill:#393536;fill-opacity:1;fill-rule:nonzero;stroke:none"
             id="path560" />
        </g>
      </g>
    </g>
  </g>
</svg>
