<?xml version="1.0" encoding="UTF-8" standalone="no"?>
<!-- Created with Inkscape (http://www.inkscape.org/) -->

<svg
   version="1.1"
   id="svg2"
   width="303.56"
   height="90.648399"
   viewBox="0 0 303.56 90.648399"
   sodipodi:docname="ordering-dir.pdf"
   xmlns:inkscape="http://www.inkscape.org/namespaces/inkscape"
   xmlns:sodipodi="http://sodipodi.sourceforge.net/DTD/sodipodi-0.dtd"
   xmlns="http://www.w3.org/2000/svg"
   xmlns:svg="http://www.w3.org/2000/svg">
  <defs
     id="defs6">
    <clipPath
       clipPathUnits="userSpaceOnUse"
       id="clipPath20">
      <path
         d="M 0,67.986 H 227.67 V 0 H 0 Z"
         id="path18" />
    </clipPath>
    <clipPath
       clipPathUnits="userSpaceOnUse"
       id="clipPath36">
      <path
         d="M 0,67.986 H 227.67 V 0 H 0 Z"
         id="path34" />
    </clipPath>
  </defs>
  <sodipodi:namedview
     id="namedview4"
     pagecolor="#ffffff"
     bordercolor="#666666"
     borderopacity="1.0"
     inkscape:showpageshadow="2"
     inkscape:pageopacity="0.0"
     inkscape:pagecheckerboard="0"
     inkscape:deskcolor="#d1d1d1" />
  <g
     id="g8"
     inkscape:groupmode="layer"
     inkscape:label="ordering-dir"
     transform="matrix(1.3333333,0,0,-1.3333333,0,90.6484)">
    <text
       xml:space="preserve"
       transform="matrix(1,0,0,-1,21.6289,55.0518)"
       style="font-variant:normal;font-weight:bold;font-stretch:normal;font-size:10px;font-family:'Myriad Pro Light';-inkscape-font-specification:MyriadPro-Semibold;writing-mode:lr-tb;fill:#393536;fill-opacity:1;fill-rule:nonzero;stroke:none"
       id="text12"><tspan
         x="0 7.0700002 10.54 16.35 21.51 25.07 27.629999 33.349998 39.080002 41.150002 48.009998 50.57 54.040001 59.200001 63.84 67.349998 69.910004 75.550003"
         y="0"
         sodipodi:role="line"
         id="tspan10">Ordering Direction</tspan></text>
    <g
       id="g14">
      <g
         id="g16"
         clip-path="url(#clipPath20)">
        <g
           id="g22"
           transform="translate(12.6172,55.9336)">
          <path
             d="M 0,0 H -1.847 L 0.099,1.978 H -4.116 V 3.344 H 0.099 L -1.847,5.329 H 0 L 2.537,2.672 V 2.648 Z M 4.57,2.672 C 4.57,3.167 4.506,3.647 4.377,4.109 4.247,4.571 4.062,5.006 3.825,5.41 3.587,5.813 3.301,6.183 2.971,6.513 2.638,6.84 2.271,7.123 1.869,7.36 1.466,7.598 1.034,7.782 0.573,7.91 0.11,8.04 -0.369,8.105 -0.867,8.105 -1.363,8.105 -1.844,8.04 -2.304,7.91 -2.766,7.782 -3.199,7.598 -3.604,7.36 -4.01,7.123 -4.38,6.84 -4.711,6.506 -5.043,6.175 -5.327,5.81 -5.565,5.404 -5.804,5.003 -5.988,4.571 -6.121,4.109 -6.253,3.647 -6.32,3.167 -6.32,2.672 c 0,-0.495 0.067,-0.974 0.199,-1.438 0.133,-0.46 0.317,-0.894 0.556,-1.297 0.238,-0.407 0.523,-0.776 0.859,-1.106 0.334,-0.334 0.704,-0.617 1.109,-0.855 0.405,-0.236 0.838,-0.422 1.301,-0.555 0.462,-0.13 0.938,-0.197 1.429,-0.197 0.745,0 1.449,0.142 2.106,0.432 0.66,0.289 1.237,0.68 1.732,1.175 0.493,0.493 0.884,1.072 1.169,1.732 0.287,0.661 0.43,1.364 0.43,2.109 M 5.122,2.683 C 5.122,2.135 5.047,1.607 4.903,1.098 4.757,0.588 4.553,0.109 4.291,-0.333 4.028,-0.778 3.715,-1.186 3.352,-1.555 2.985,-1.92 2.581,-2.234 2.136,-2.497 1.689,-2.758 1.213,-2.963 0.705,-3.108 c -0.507,-0.147 -1.033,-0.22 -1.579,-0.22 -0.547,0 -1.071,0.073 -1.58,0.22 -0.508,0.145 -0.984,0.35 -1.43,0.615 -0.447,0.264 -0.853,0.582 -1.22,0.947 -0.367,0.369 -0.681,0.774 -0.943,1.219 -0.263,0.445 -0.467,0.921 -0.613,1.43 -0.146,0.504 -0.218,1.032 -0.218,1.58 0,0.549 0.072,1.078 0.218,1.584 0.146,0.509 0.35,0.984 0.613,1.429 0.262,0.445 0.576,0.852 0.943,1.215 0.367,0.365 0.773,0.678 1.22,0.941 0.446,0.259 0.922,0.463 1.43,0.606 0.509,0.143 1.033,0.214 1.58,0.214 0.546,0 1.072,-0.073 1.579,-0.216 C 1.213,8.309 1.689,8.105 2.136,7.843 2.581,7.58 2.985,7.266 3.352,6.9 3.715,6.531 4.028,6.128 4.291,5.684 4.553,5.24 4.757,4.769 4.903,4.261 5.047,3.753 5.122,3.226 5.122,2.683"
             style="fill:#393536;fill-opacity:1;fill-rule:nonzero;stroke:none"
             id="path24" />
        </g>
      </g>
    </g>
    <text
       xml:space="preserve"
       transform="matrix(1,0,0,-1,32.4658,35.8682)"
       style="font-variant:normal;font-weight:normal;font-stretch:normal;font-size:10px;font-family:'Myriad Pro';-inkscape-font-specification:MyriadPro-Regular;writing-mode:lr-tb;fill:#393536;fill-opacity:1;fill-rule:nonzero;stroke:none"
       id="text28"><tspan
         x="0 4.9899998 10 15.63 21.139999 26.15 31.66 34.970001 37.310001 42.130001 81.150002 87.809998 90.150002 94.860001 99.870003 103.06 108.59 110.93 116.48 162.74001 168.34 172.95 177.42999 179.78999 182.13"
         y="0"
         sodipodi:role="line"
         id="tspan26">SequentialDivergingCyclic</tspan></text>
    <g
       id="g30">
      <g
         id="g32"
         clip-path="url(#clipPath36)">
        <path
           d="M 65.237,17.901 H 33.805 v 1 h 31.432 z"
           style="fill:#393536;fill-opacity:1;fill-rule:nonzero;stroke:none"
           id="path38" />
        <g
           id="g40"
           transform="translate(64.5376,20.3853)">
          <path
             d="m 0,0 v -4.031 l 3.49,2.015 z"
             style="fill:#393536;fill-opacity:1;fill-rule:nonzero;stroke:none"
             id="path42" />
        </g>
        <path
           d="m 157.799,17.996 h -41.658 v 1 h 41.658 z"
           style="fill:#393536;fill-opacity:1;fill-rule:nonzero;stroke:none"
           id="path44" />
        <g
           id="g46"
           transform="translate(156.4048,20.5127)">
          <path
             d="m 0,0 v -4.03 l 3.49,2.013 z"
             style="fill:#393536;fill-opacity:1;fill-rule:nonzero;stroke:none"
             id="path48" />
        </g>
        <g
           id="g50"
           transform="translate(117.8853,20.5127)">
          <path
             d="m 0,0 v -4.03 l -3.49,2.013 z"
             style="fill:#393536;fill-opacity:1;fill-rule:nonzero;stroke:none"
             id="path52" />
        </g>
        <path
           d="m 142.467,14.143 h -3.619 v 8.454 h 3.619 z"
           style="fill:#393536;fill-opacity:1;fill-rule:nonzero;stroke:none"
           id="path54" />
        <g
           id="g56"
           transform="translate(205.1504,9.7319)">
          <path
             d="m 0,0 c -4.504,0 -8.166,3.663 -8.166,8.166 0,3.833 2.607,7.107 6.34,7.961 l 0.222,-0.975 C -4.879,14.403 -7.166,11.53 -7.166,8.166 -7.166,4.215 -3.951,1 0,1 c 3.951,0 7.166,3.215 7.166,7.166 0,3.688 -2.766,6.753 -6.43,7.129 l 0.102,0.994 C 5.016,15.861 8.166,12.369 8.166,8.166 8.166,3.663 4.502,0 0,0"
             style="fill:#393536;fill-opacity:1;fill-rule:nonzero;stroke:none"
             id="path58" />
        </g>
        <g
           id="g60"
           transform="translate(200.5527,26.1938)">
          <path
             d="M 0,0 1.697,-3.656 4.016,-0.36 Z"
             style="fill:#393536;fill-opacity:1;fill-rule:nonzero;stroke:none"
             id="path62" />
        </g>
        <path
           d="m 206.15,24.007 h -1 v 3 h 1 z"
           style="fill:#393536;fill-opacity:1;fill-rule:nonzero;stroke:none"
           id="path64" />
        <g
           id="g66"
           transform="translate(25.8032,36.9531)">
          <path
             d="M 0,0 -1.732,0.002 0.091,1.854 H -3.862 V 3.138 H 0.091 L -1.734,5 H 0 L 2.379,2.507 V 2.485 Z"
             style="fill:#393536;fill-opacity:1;fill-rule:nonzero;stroke:none"
             id="path68" />
        </g>
        <g
           id="g70"
           transform="translate(106.8911,36.9531)">
          <path
             d="M 0,0 H -1.732 L 0.091,1.854 H -3.863 V 3.138 H 0.091 L -1.732,5 H 0 L 2.38,2.507 V 2.484 Z"
             style="fill:#393536;fill-opacity:1;fill-rule:nonzero;stroke:none"
             id="path72" />
        </g>
        <g
           id="g74"
           transform="translate(188.7871,36.9531)">
          <path
             d="M 0,0 H -1.735 L 0.091,1.854 H -3.863 V 3.139 H 0.091 L -1.735,5 H 0 L 2.38,2.508 V 2.484 Z"
             style="fill:#393536;fill-opacity:1;fill-rule:nonzero;stroke:none"
             id="path76" />
        </g>
        <path
           d="m 33.99,16.87 h -1 v 3 h 1 z"
           style="fill:#393536;fill-opacity:1;fill-rule:nonzero;stroke:none"
           id="path78" />
      </g>
    </g>
  </g>
</svg>
